<?xml version="1.0" encoding="UTF-8"?>
<svg version="1.1" xmlns="http://www.w3.org/2000/svg" width="175" height="188">
<path d="M0 0 C57.75 0 115.5 0 175 0 C175 62.04 175 124.08 175 188 C117.25 188 59.5 188 0 188 C0 125.96 0 63.92 0 0 Z " fill="#FEFEFE" transform="translate(0,0)"/>
<path d="M0 0 C3.0625 0.25 3.0625 0.25 6.0625 2.25 C7.238125 2.559375 8.41375 2.86875 9.625 3.1875 C13.0625 4.25 13.0625 4.25 15.0625 7.25 C17.9119543 9.17757203 20.91717073 10.67850518 24 12.1875 C27.59055657 13.96917769 30.86077154 15.82918092 34.0625 18.25 C34.5575 19.735 34.5575 19.735 35.0625 21.25 C37.37734647 22.68520481 39.65608663 23.98949776 42.0625 25.25 C46.72403575 27.69928149 50.57093197 30.22940652 54.0625 34.25 C54.0625 34.91 54.0625 35.57 54.0625 36.25 C54.65417969 36.35441406 55.24585937 36.45882812 55.85546875 36.56640625 C58.38780619 37.35075855 59.49181621 38.34926093 61.375 40.1875 C64.03328613 42.60049364 65.13227009 43.2689207 68.75 44.25 C72.0625 45.25 72.0625 45.25 74.5 48.25 C76.0625 51.25 76.0625 51.25 76.0625 53.25 C76.7225 53.25 77.3825 53.25 78.0625 53.25 C78.0625 62.49 78.0625 71.73 78.0625 81.25 C78.7225 81.25 79.3825 81.25 80.0625 81.25 C80.02440522 90.01274748 79.96498914 98.77501875 79.87859726 107.53742409 C79.83914334 111.6065084 79.80694485 115.675377 79.79150391 119.74462891 C79.77632324 123.6741585 79.74185364 127.60309495 79.69419098 131.53236008 C79.67939154 133.02895314 79.6714598 134.5256309 79.67061615 136.02229691 C79.66824019 138.12438917 79.64111521 140.22485051 79.60839844 142.32666016 C79.59507477 144.1186937 79.59507477 144.1186937 79.58148193 145.94692993 C78.95342334 149.9442204 77.61147681 152.1370925 75.0625 155.25 C74.0725 155.58 73.0825 155.91 72.0625 156.25 C71.794375 156.91 71.52625 157.57 71.25 158.25 C70.6621875 159.24 70.6621875 159.24 70.0625 160.25 C68.0625 160.58333333 66.0625 160.91666667 64.0625 161.25 C62.89583333 163.16666667 62.89583333 163.16666667 62.0625 165.25 C60.01195369 166.90621048 58.64873081 167.28032228 56.0234375 167.14453125 C54.02897562 166.90139014 52.04438995 166.58031499 50.0625 166.25 C50.0625 165.26 50.0625 164.27 50.0625 163.25 C47.4225 162.92 44.7825 162.59 42.0625 162.25 C42.0625 161.59 42.0625 160.93 42.0625 160.25 C41.32 160.1675 40.5775 160.085 39.8125 160 C36.50550369 159.09809192 35.37797635 157.71486192 33.0625 155.25 C32.36125 154.899375 31.66 154.54875 30.9375 154.1875 C29.0625 153.25 29.0625 153.25 27.0625 150.25 C26.79748535 147.48646545 26.79748535 147.48646545 26.77539062 144.09790039 C26.76197632 142.82970963 26.74856201 141.56151886 26.73474121 140.25489807 C26.73217819 139.57761721 26.72961517 138.90033634 26.72697449 138.20253181 C26.71867983 136.079698 26.69817021 133.95729324 26.67443848 131.83457947 C26.62622497 127.32728336 26.59328512 122.81994443 26.5625 118.3125 C26.5268166 113.09231086 26.48486694 107.87233152 26.42655945 102.65234184 C26.40651597 100.56288228 26.3981764 98.47358403 26.39025879 96.38404846 C26.37684448 95.11270554 26.36343018 93.84136261 26.34960938 92.53149414 C26.34231812 91.41247208 26.33502686 90.29345001 26.32751465 89.14051819 C26.06538127 86.28142603 25.65195115 84.61972442 24.0625 82.25 C21.76715742 81.11454438 21.76715742 81.11454438 19.0625 80.25 C14.49068024 78.24982886 11.26881996 76.11644466 8.0625 72.25 C8.0625 70.93 8.0625 69.61 8.0625 68.25 C7.155 68.311875 6.2475 68.37375 5.3125 68.4375 C1.77011168 68.23313144 0.53596304 67.72346304 -1.9375 65.25 C-1.9375 64.59 -1.9375 63.93 -1.9375 63.25 C-2.9275 63.25 -3.9175 63.25 -4.9375 63.25 C-5.2675 62.26 -5.5975 61.27 -5.9375 60.25 C-7.030625 60.146875 -8.12375 60.04375 -9.25 59.9375 C-13.1899475 59.20293352 -13.38676012 58.89909746 -15.9375 56.25 C-17.92205672 55.1977048 -19.9426617 54.31024175 -22 53.41015625 C-24.43862277 51.94993254 -25.46488962 50.69352575 -26.9375 48.25 C-27.57571192 43.50332294 -27.40073772 38.72237623 -27.375 33.9375 C-27.39498047 32.63103516 -27.41496094 31.32457031 -27.43554688 29.97851562 C-27.43194887 22.9012468 -27.30082278 17.9612007 -22.9375 12.25 C-21.6175 12.25 -20.2975 12.25 -18.9375 12.25 C-18.9375 11.26 -18.9375 10.27 -18.9375 9.25 C-17.72916667 8.64583333 -16.52083333 8.04166667 -15.3125 7.4375 C-14.58546875 7.07269531 -13.8584375 6.70789063 -13.109375 6.33203125 C-11.26786271 5.41458718 -9.41621567 4.51752977 -7.5625 3.625 C-0.76659931 0.06524249 -0.76659931 0.06524249 0 0 Z " fill="#E94335" transform="translate(33.9375,20.75)"/>
<path d="M0 0 C0.33 0.66 0.66 1.32 1 2 C2.65697379 2.69040574 4.3255761 3.3530635 6 4 C8.8125 5.5 8.8125 5.5 11 7 C11 7.66 11 8.32 11 9 C12.1446875 9.433125 12.1446875 9.433125 13.3125 9.875 C16 11 16 11 19 13 C20.65549531 13.38499891 22.3222433 13.72793135 24 14 C24 14.66 24 15.32 24 16 C24.763125 16.144375 25.52625 16.28875 26.3125 16.4375 C29 17 29 17 32 18 C32.495 18.99 32.495 18.99 33 20 C33.928125 20.4640625 33.928125 20.4640625 34.875 20.9375 C37.11499325 22.05749662 38.27542004 23.20643684 40 25 C42.54820635 27.21291604 44.59065601 28.84184437 47.75 30.0625 C48.4925 30.371875 49.235 30.68125 50 31 C50.495 32.485 50.495 32.485 51 34 C51.99 34.33 52.98 34.66 54 35 C54.99 35.33 55.98 35.66 57 36 C57.33 36.99 57.66 37.98 58 39 C59.64455275 39.71949183 61.31923769 40.36971413 63 41 C64.51387056 41.74322268 66.0129678 42.51693777 67.5 43.3125 C68.2321875 43.70050781 68.964375 44.08851562 69.71875 44.48828125 C76.54409611 49.01124177 76.54409611 49.01124177 77.4522953 52.97301674 C77.61574146 55.42488909 77.61837263 57.83142929 77.56762695 60.28833008 C77.56835709 61.21564941 77.56908722 62.14296875 77.56983948 63.09838867 C77.56636281 66.15603627 77.52749732 69.21215059 77.48828125 72.26953125 C77.47895342 74.39230009 77.47183717 76.5150797 77.46684265 78.63786316 C77.44777064 84.21945012 77.39866736 89.80038441 77.34332275 95.38171387 C77.29213509 101.07925589 77.26932959 106.77690359 77.24414062 112.47460938 C77.19054942 123.65002602 77.10523357 134.82495869 77 146 C73.7 145.67 70.4 145.34 67 145 C67 144.34 67 143.68 67 143 C66.2575 142.9175 65.515 142.835 64.75 142.75 C61.44300369 141.84809192 60.31547635 140.46486192 58 138 C57.29875 137.649375 56.5975 137.29875 55.875 136.9375 C54 136 54 136 52 133 C51.73498535 130.23646545 51.73498535 130.23646545 51.71289062 126.84790039 C51.69947632 125.57970963 51.68606201 124.31151886 51.67224121 123.00489807 C51.66967819 122.32761721 51.66711517 121.65033634 51.66447449 120.95253181 C51.65617983 118.829698 51.63567021 116.70729324 51.61193848 114.58457947 C51.56372497 110.07728336 51.53078512 105.56994443 51.5 101.0625 C51.4643166 95.84231086 51.42236694 90.62233152 51.36405945 85.40234184 C51.34401597 83.31288228 51.3356764 81.22358403 51.32775879 79.13404846 C51.31434448 77.86270554 51.30093018 76.59136261 51.28710938 75.28149414 C51.27981812 74.16247208 51.27252686 73.04345001 51.26501465 71.89051819 C51.00288127 69.03142603 50.58945115 67.36972442 49 65 C46.70465742 63.86454438 46.70465742 63.86454438 44 63 C39.42818024 60.99982886 36.20631996 58.86644466 33 55 C33 53.68 33 52.36 33 51 C32.0925 51.061875 31.185 51.12375 30.25 51.1875 C26.70761168 50.98313144 25.47346304 50.47346304 23 48 C23 47.34 23 46.68 23 46 C22.01 46 21.02 46 20 46 C19.67 45.01 19.34 44.02 19 43 C17.906875 42.896875 16.81375 42.79375 15.6875 42.6875 C11.7475525 41.95293352 11.55073988 41.64909746 9 39 C7.01544328 37.9477048 4.9948383 37.06024175 2.9375 36.16015625 C0.49214143 34.6958992 -0.5309997 33.45669255 -2 31 C-2.37231445 27.91552734 -2.37231445 27.91552734 -2.36328125 24.3359375 C-2.36231445 22.40621094 -2.36231445 22.40621094 -2.36132812 20.4375 C-2.35302979 19.77105469 -2.34473145 19.10460937 -2.33618164 18.41796875 C-2.31249538 16.37460177 -2.31563736 14.33253275 -2.32226562 12.2890625 C-2.26692248 2.26692248 -2.26692248 2.26692248 0 0 Z " fill="#35A854" transform="translate(9,38)"/>
<path d="M0 0 C3.63 0 7.26 0 11 0 C11 0.66 11 1.32 11 2 C11.66 2 12.32 2 13 2 C13.495 2.99 13.495 2.99 14 4 C17.08001622 5.85963244 20.125803 7.58590668 23.375 9.125 C25 10 25 10 26 12 C27.11375 12.28875 28.2275 12.5775 29.375 12.875 C33.35808568 14.11113004 34.07937039 14.44774844 36 18 C36.35181039 20.69966246 36.53857383 23.16691566 36.57421875 25.87109375 C36.5889473 26.63043716 36.60367584 27.38978058 36.61885071 28.1721344 C36.64275434 29.77489196 36.65820827 31.37779493 36.66577148 32.98071289 C36.6874145 35.42783257 36.76763326 37.8687094 36.84960938 40.31445312 C37.04681361 51.64881053 37.04681361 51.64881053 34.37695312 55.0949707 C32.28393505 56.41605145 30.34393474 57.22281333 28 58 C26.97132813 58.59425781 25.94265625 59.18851563 24.8828125 59.80078125 C23.97273438 60.29964844 23.06265625 60.79851562 22.125 61.3125 C21.19945312 61.82425781 20.27390625 62.33601563 19.3203125 62.86328125 C17 64 17 64 15 64 C15 64.66 15 65.32 15 66 C14.071875 66.433125 13.14375 66.86625 12.1875 67.3125 C9.46597307 68.75330838 8.05731109 69.84472171 6 72 C4.515 72.495 4.515 72.495 3 73 C0.83685299 74.90094737 -0.73983303 76.42763266 -1.9375 79.0625 C-3.40908281 81.74597453 -5.33962843 82.57248355 -8 84 C-8.99 84.66 -9.98 85.32 -11 86 C-13.6875 85.625 -13.6875 85.625 -16 85 C-16 84.34 -16 83.68 -16 83 C-16.66 83 -17.32 83 -18 83 C-18 73.76 -18 64.52 -18 55 C-18.66 55 -19.32 55 -20 55 C-21.04296875 53.3203125 -21.04296875 53.3203125 -22.1875 51.125 C-24.35711959 47.47711815 -24.35711959 47.47711815 -28.375 45.875 C-29.57125 45.58625 -30.7675 45.2975 -32 45 C-33.94718395 43.56164807 -35.67271158 42.0113574 -37.421875 40.33984375 C-39.07444876 38.76799856 -39.07444876 38.76799856 -42 38 C-42.28875 37.195625 -42.5775 36.39125 -42.875 35.5625 C-43.75286524 32.81159727 -43.75286524 32.81159727 -46.3125 31.875 C-47.199375 31.58625 -48.08625 31.2975 -49 31 C-50.68208635 30.02616054 -52.34738161 29.02304948 -54 28 C-55.24943831 27.31147974 -56.49946155 26.62402009 -57.75 25.9375 C-61 24 -61 24 -62 22 C-59.5625 22.375 -59.5625 22.375 -57 23 C-56.67 23.66 -56.34 24.32 -56 25 C-53.75954589 26.06076737 -53.75954589 26.06076737 -51.125 27 C-48.06202491 28.14303444 -45.7433159 29.17112273 -43 31 C-43 29.68 -43 28.36 -43 27 C-40.03 26.67 -37.06 26.34 -34 26 C-33.67 25.01 -33.34 24.02 -33 23 C-31.02 22.67 -29.04 22.34 -27 22 C-26.67 20.68 -26.34 19.36 -26 18 C-24.68 17.67 -23.36 17.34 -22 17 C-21.95875 16.38125 -21.9175 15.7625 -21.875 15.125 C-21.441875 14.073125 -21.441875 14.073125 -21 13 C-18.125 11.875 -18.125 11.875 -15 11 C-14.01 10.34 -13.02 9.68 -12 9 C-10.68 9 -9.36 9 -8 9 C-8 8.01 -8 7.02 -8 6 C-5.35261084 4.5393715 -4.10551666 4 -1 4 C-0.67 2.68 -0.34 1.36 0 0 Z " fill="#01ADFD" transform="translate(130,19)"/>
<path d="M0 0 C0 9.24 0 18.48 0 28 C0.66 28 1.32 28 2 28 C1.96190522 36.76274748 1.90248914 45.52501875 1.81609726 54.28742409 C1.77664334 58.3565084 1.74444485 62.425377 1.72900391 66.49462891 C1.71382324 70.4241585 1.67935364 74.35309495 1.63169098 78.28236008 C1.61689154 79.77895314 1.6089598 81.2756309 1.60811615 82.77229691 C1.60574019 84.87438917 1.57861521 86.97485051 1.54589844 89.07666016 C1.53701599 90.27134918 1.52813354 91.46603821 1.51898193 92.69692993 C0.89092334 96.6942204 -0.45102319 98.8870925 -3 102 C-4.485 102.495 -4.485 102.495 -6 103 C-6.268125 103.66 -6.53625 104.32 -6.8125 105 C-7.4003125 105.99 -7.4003125 105.99 -8 107 C-10 107.33333333 -12 107.66666667 -14 108 C-15.16666667 109.91666667 -15.16666667 109.91666667 -16 112 C-18.05054631 113.65621048 -19.41376919 114.03032228 -22.0390625 113.89453125 C-24.03352438 113.65139014 -26.01811005 113.33031499 -28 113 C-28 112.01 -28 111.02 -28 110 C-27.34 110 -26.68 110 -26 110 C-26 77.99 -26 45.98 -26 13 C-23.69 12.34 -21.38 11.68 -19 11 C-18.67 10.01 -18.34 9.02 -18 8 C-16.36328125 6.97265625 -16.36328125 6.97265625 -14.3125 6.0625 C-11.5287312 4.77270372 -9.30527114 3.51903387 -6.75 1.75 C-4 0 -4 0 0 0 Z " fill="#F9BC06" transform="translate(112,74)"/>
<path d="M0 0 C3.63 0 7.26 0 11 0 C11 0.66 11 1.32 11 2 C11.66 2 12.32 2 13 2 C13.495 2.99 13.495 2.99 14 4 C17.08001622 5.85963244 20.125803 7.58590668 23.375 9.125 C25 10 25 10 26 12 C27.11375 12.28875 28.2275 12.5775 29.375 12.875 C33.35808568 14.11113004 34.07937039 14.44774844 36 18 C36.35181039 20.69966246 36.53857383 23.16691566 36.57421875 25.87109375 C36.5889473 26.63043716 36.60367584 27.38978058 36.61885071 28.1721344 C36.64275434 29.77489196 36.65820827 31.37779493 36.66577148 32.98071289 C36.6874145 35.42783257 36.76763326 37.8687094 36.84960938 40.31445312 C37.04681361 51.64881053 37.04681361 51.64881053 34.37695312 55.0949707 C32.28393505 56.41605145 30.34393474 57.22281333 28 58 C26.97132813 58.59425781 25.94265625 59.18851563 24.8828125 59.80078125 C23.97273438 60.29964844 23.06265625 60.79851562 22.125 61.3125 C21.19945312 61.82425781 20.27390625 62.33601563 19.3203125 62.86328125 C17 64 17 64 15 64 C15 64.66 15 65.32 15 66 C14.071875 66.433125 13.14375 66.86625 12.1875 67.3125 C9.46597307 68.75330838 8.05731109 69.84472171 6 72 C4.515 72.495 4.515 72.495 3 73 C0.83685299 74.90094737 -0.73983303 76.42763266 -1.9375 79.0625 C-3.40908281 81.74597453 -5.33962843 82.57248355 -8 84 C-8.99 84.66 -9.98 85.32 -11 86 C-13.6875 85.625 -13.6875 85.625 -16 85 C-16 84.34 -16 83.68 -16 83 C-16.66 83 -17.32 83 -18 83 C-18 73.76 -18 64.52 -18 55 C-18.66 55 -19.32 55 -20 55 C-21.04296875 53.3203125 -21.04296875 53.3203125 -22.1875 51.125 C-24.35711959 47.47711815 -24.35711959 47.47711815 -28.375 45.875 C-29.57125 45.58625 -30.7675 45.2975 -32 45 C-33.94718395 43.56164807 -35.67271158 42.0113574 -37.421875 40.33984375 C-39.07444876 38.76799856 -39.07444876 38.76799856 -42 38 C-42.28875 37.195625 -42.5775 36.39125 -42.875 35.5625 C-43.75286524 32.81159727 -43.75286524 32.81159727 -46.3125 31.875 C-47.199375 31.58625 -48.08625 31.2975 -49 31 C-50.68208635 30.02616054 -52.34738161 29.02304948 -54 28 C-55.24943831 27.31147974 -56.49946155 26.62402009 -57.75 25.9375 C-61 24 -61 24 -62 22 C-59.5625 22.375 -59.5625 22.375 -57 23 C-56.67 23.66 -56.34 24.32 -56 25 C-53.75954589 26.06076737 -53.75954589 26.06076737 -51.125 27 C-48.06202491 28.14303444 -45.7433159 29.17112273 -43 31 C-43 29.68 -43 28.36 -43 27 C-40.03 26.67 -37.06 26.34 -34 26 C-33.67 25.01 -33.34 24.02 -33 23 C-31.02 22.67 -29.04 22.34 -27 22 C-26.67 20.68 -26.34 19.36 -26 18 C-24.68 17.67 -23.36 17.34 -22 17 C-21.95875 16.38125 -21.9175 15.7625 -21.875 15.125 C-21.441875 14.073125 -21.441875 14.073125 -21 13 C-18.125 11.875 -18.125 11.875 -15 11 C-14.01 10.34 -13.02 9.68 -12 9 C-10.68 9 -9.36 9 -8 9 C-8 8.01 -8 7.02 -8 6 C-5.35261084 4.5393715 -4.10551666 4 -1 4 C-0.67 2.68 -0.34 1.36 0 0 Z M5 3 C5 3.66 5 4.32 5 5 C4.34 5 3.68 5 3 5 C2.67 5.66 2.34 6.32 2 7 C0.66666667 7.33333333 -0.66666667 7.66666667 -2 8 C-2.33 8.66 -2.66 9.32 -3 10 C-4.70854581 10.75570295 -6.41954641 11.50692332 -8.1484375 12.21484375 C-10.61514167 13.26085122 -12.81079351 14.45467777 -15 16 C-15.33 16.99 -15.66 17.98 -16 19 C-18.0625 20.1875 -18.0625 20.1875 -20 21 C-20 22.32 -20 23.64 -20 25 C-20.61746094 24.93039063 -21.23492187 24.86078125 -21.87109375 24.7890625 C-28.41160986 24.37094731 -31.90441387 25.60901464 -37.08984375 29.58984375 C-39 31 -39 31 -42 32 C-42 32.99 -42 33.98 -42 35 C-39.36 35.33 -36.72 35.66 -34 36 C-34 36.99 -34 37.98 -34 39 C-32.02 39.33 -30.04 39.66 -28 40 C-27.938125 40.928125 -27.938125 40.928125 -27.875 41.875 C-27.441875 42.926875 -27.441875 42.926875 -27 44 C-24.00384054 45.3045656 -24.00384054 45.3045656 -21 46 C-21 46.66 -21 47.32 -21 48 C-19.02 48 -17.04 48 -15 48 C-15 59.55 -15 71.1 -15 83 C-13.02 82.01 -13.02 82.01 -11 81 C-9.865625 80.54625 -8.73125 80.0925 -7.5625 79.625 C-3.61108961 77.82260228 0.00171773 75.99656454 2 72 C4.0625 70.875 4.0625 70.875 6 70 C6 69.01 6 68.02 6 67 C8.97 66.505 8.97 66.505 12 66 C12.33 64.68 12.66 63.36 13 62 C14.98 61.505 14.98 61.505 17 61 C17 59.68 17 58.36 17 57 C18.65 57 20.3 57 22 57 C22.33 55.68 22.66 54.36 23 53 C25.64 52.67 28.28 52.34 31 52 C31 50.68 31 49.36 31 48 C31.66 48 32.32 48 33 48 C33 39.09 33 30.18 33 21 C32.34 20.67 31.68 20.34 31 20 C30.690625 19.34 30.38125 18.68 30.0625 18 C29.1108154 15.65391779 29.1108154 15.65391779 26 15 C25.505 13.515 25.505 13.515 25 12 C23.12612784 11.19787372 23.12612784 11.19787372 20.9375 10.8125 C20.20402344 10.65394531 19.47054687 10.49539062 18.71484375 10.33203125 C18.14894531 10.22246094 17.58304688 10.11289062 17 10 C17 9.34 17 8.68 17 8 C15.2984375 7.5978125 15.2984375 7.5978125 13.5625 7.1875 C12.386875 6.795625 11.21125 6.40375 10 6 C9.505 4.515 9.505 4.515 9 3 C7.68 3 6.36 3 5 3 Z " fill="#43BDF3" transform="translate(130,19)"/>
<path d="M0 0 C0.99 0 1.98 0 3 0 C3 0.66 3 1.32 3 2 C3.763125 2.144375 4.52625 2.28875 5.3125 2.4375 C8 3 8 3 11 4 C11.33 4.66 11.66 5.32 12 6 C12.928125 6.4640625 12.928125 6.4640625 13.875 6.9375 C16.11499325 8.05749662 17.27542004 9.20643684 19 11 C21.54820635 13.21291604 23.59065601 14.84184437 26.75 16.0625 C27.4925 16.371875 28.235 16.68125 29 17 C29.33 17.99 29.66 18.98 30 20 C30.99 20.33 31.98 20.66 33 21 C33.99 21.33 34.98 21.66 36 22 C36.495 23.485 36.495 23.485 37 25 C38.64455275 25.71949183 40.31923769 26.36971413 42 27 C43.51387056 27.74322268 45.0129678 28.51693777 46.5 29.3125 C47.2321875 29.70050781 47.964375 30.08851562 48.71875 30.48828125 C55.54409611 35.01124177 55.54409611 35.01124177 56.4522953 38.97301674 C56.61574146 41.42488909 56.61837263 43.83142929 56.56762695 46.28833008 C56.56835709 47.21564941 56.56908722 48.14296875 56.56983948 49.09838867 C56.56636281 52.15603627 56.52749732 55.21215059 56.48828125 58.26953125 C56.47895342 60.39230009 56.47183717 62.5150797 56.46684265 64.63786316 C56.44777064 70.21945012 56.39866736 75.80038441 56.34332275 81.38171387 C56.29213509 87.07925589 56.26932959 92.77690359 56.24414062 98.47460938 C56.19054942 109.65002602 56.10523357 120.82495869 56 132 C55.01 132 54.02 132 53 132 C52.67 99.99 52.34 67.98 52 35 C50.02 35 48.04 35 46 35 C44 34 44 34 43 31 C40.7552529 28.19406612 38.3529984 27.17808052 35 26 C35 25.34 35 24.68 35 24 C34.443125 23.87625 33.88625 23.7525 33.3125 23.625 C30.77885636 22.94023145 28.42078968 22.00866237 26 21 C26 20.01 26 19.02 26 18 C24.88625 17.9175 23.7725 17.835 22.625 17.75 C19 17 19 17 17.75 15.125 C17.5025 14.42375 17.255 13.7225 17 13 C15.0435312 10.17398951 13.16926944 9.73456779 9.9375 9.0625 C6.15213523 8.22820285 6.15213523 8.22820285 4.75 6.125 C4.37875 5.073125 4.37875 5.073125 4 4 C2.70529025 2.62913085 1.37849103 1.28659163 0 0 Z " fill="#72AD3B" transform="translate(30,52)"/>
<path d="M0 0 C1.98 0 3.96 0 6 0 C6 1.32 6 2.64 6 4 C6.99 4.33 7.98 4.66 9 5 C9.45375 5.639375 9.9075 6.27875 10.375 6.9375 C12.38574857 9.48960395 13.95665417 9.93836773 17 11 C22.60582686 13.41819982 22.60582686 13.41819982 24.15783691 15.70896912 C25.2425164 18.65974461 25.26661813 21.13661109 25.28710938 24.28149414 C25.30052368 25.55283707 25.31393799 26.82417999 25.32775879 28.13404846 C25.33160332 29.14865741 25.33160332 29.14865741 25.33552551 30.1837635 C25.34383315 32.30640176 25.3643529 34.42861361 25.38806152 36.5511322 C25.44439772 41.82039395 25.47969666 47.08975911 25.51568604 52.35919189 C25.54692585 56.81674461 25.58610741 61.27408912 25.63594055 65.73147392 C25.65600995 67.82264359 25.66432736 69.91365218 25.67224121 72.00489807 C25.68565552 73.27308884 25.69906982 74.5412796 25.71289062 75.84790039 C25.72018188 76.96612686 25.72747314 78.08435333 25.73498535 79.23646545 C25.80070282 82.21318959 25.80070282 82.21318959 28 85 C29.64333504 86.03789581 31.31243867 87.03567924 33 88 C33.70125 88.53625 34.4025 89.0725 35.125 89.625 C37.05737672 91.18913067 37.05737672 91.18913067 40 92 C40 92.66 40 93.32 40 94 C42.64 94.33 45.28 94.66 48 95 C48 95.99 48 96.98 48 98 C48.99 98.33 49.98 98.66 51 99 C48.1875 99.1875 48.1875 99.1875 45 99 C43.99706316 98.00294549 42.99766083 97.00233371 42 96 C40.07087537 94.94475234 38.10826543 93.94959342 36.125 93 C24.66239312 87.4841591 24.66239312 87.4841591 21 83 C20.48101807 80.0133667 20.48101807 80.0133667 20.45410156 76.48730469 C20.43859505 75.52082504 20.43859505 75.52082504 20.42277527 74.53482056 C20.39337107 72.41358289 20.39184875 70.29330034 20.390625 68.171875 C20.37564156 66.69783715 20.35891405 65.22381607 20.34051514 63.74981689 C20.29684696 59.87661972 20.276844 56.00364899 20.26177979 52.13024902 C20.24220655 48.17523816 20.20023687 44.2204718 20.16015625 40.265625 C20.0848601 32.5104824 20.03456539 24.75544244 20 17 C19.15115234 16.83564453 19.15115234 16.83564453 18.28515625 16.66796875 C17.18494141 16.43013672 17.18494141 16.43013672 16.0625 16.1875 C15.33160156 16.03667969 14.60070312 15.88585937 13.84765625 15.73046875 C13.23792969 15.48941406 12.62820312 15.24835938 12 15 C11.67 14.01 11.34 13.02 11 12 C8.98491642 11.26676204 8.98491642 11.26676204 7 11 C7 9.68 7 8.36 7 7 C6.401875 6.9175 5.80375 6.835 5.1875 6.75 C2.37067727 5.78423221 1.52200868 4.51131433 0 2 C0 1.34 0 0.68 0 0 Z " fill="#C3E3CD" transform="translate(36,89)"/>
<path d="M0 0 C1.32 0 2.64 0 4 0 C4 9.24 4 18.48 4 28 C4.66 28 5.32 28 6 28 C5.96190522 36.76274748 5.90248914 45.52501875 5.81609726 54.28742409 C5.77664334 58.3565084 5.74444485 62.425377 5.72900391 66.49462891 C5.71382324 70.4241585 5.67935364 74.35309495 5.63169098 78.28236008 C5.61689154 79.77895314 5.6089598 81.2756309 5.60811615 82.77229691 C5.60574019 84.87438917 5.57861521 86.97485051 5.54589844 89.07666016 C5.53701599 90.27134918 5.52813354 91.46603821 5.51898193 92.69692993 C4.89092334 96.6942204 3.54897681 98.8870925 1 102 C-0.485 102.495 -0.485 102.495 -2 103 C-2.268125 103.66 -2.53625 104.32 -2.8125 105 C-3.4003125 105.99 -3.4003125 105.99 -4 107 C-6 107.33333333 -8 107.66666667 -10 108 C-11.16666667 109.91666667 -11.16666667 109.91666667 -12 112 C-14.99904936 114.0683099 -17.41302423 114.19927643 -21 114 C-20.67 113.01 -20.34 112.02 -20 111 C-17.66666667 110.33333333 -15.33333333 109.66666667 -13 109 C-12.67 108.01 -12.34 107.02 -12 106 C-9.68895182 104.94952356 -7.35416349 103.94992562 -5 103 C-4.01 102.01 -4.01 102.01 -3 101 C-2.01 101 -1.02 101 0 101 C0 67.67 0 34.34 0 0 Z " fill="#F8C942" transform="translate(108,74)"/>
<path d="M0 0 C3.63 0 7.26 0 11 0 C11 0.66 11 1.32 11 2 C11.66 2 12.32 2 13 2 C13.495 2.99 13.495 2.99 14 4 C17.59153789 6.16847571 21.21676796 8.18404862 25 10 C25 10.66 25 11.32 25 12 C19.25 11.125 19.25 11.125 17 10 C17 9.34 17 8.68 17 8 C15.8553125 7.8453125 15.8553125 7.8453125 14.6875 7.6875 C11.73421485 6.93200845 11.04132166 6.13007477 9 4 C6.89667109 3.28552357 6.89667109 3.28552357 5 3 C5 3.66 5 4.32 5 5 C4.34 5 3.68 5 3 5 C2.67 5.99 2.34 6.98 2 8 C0.68 8 -0.64 8 -2 8 C-2.33 8.99 -2.66 9.98 -3 11 C-5.31104818 12.05047644 -7.64583651 13.05007438 -10 14 C-10.66 14.66 -11.32 15.32 -12 16 C-12.99 16 -13.98 16 -15 16 C-15.103125 16.639375 -15.20625 17.27875 -15.3125 17.9375 C-15.539375 18.618125 -15.76625 19.29875 -16 20 C-16.99 20.33 -17.98 20.66 -19 21 C-19.73323796 23.01508358 -19.73323796 23.01508358 -20 25 C-20.92619141 25.00386719 -20.92619141 25.00386719 -21.87109375 25.0078125 C-28.27510205 25.30023297 -31.77210501 26.8712989 -36.90234375 30.6171875 C-39.96909778 32.63884658 -42.35117902 33.14033927 -46 33 C-48.5 31.25 -48.5 31.25 -51 29 C-52.7634375 28.2575 -52.7634375 28.2575 -54.5625 27.5 C-57.90095306 26.04322048 -59.65111441 24.72470728 -62 22 C-59.5625 22.375 -59.5625 22.375 -57 23 C-56.67 23.66 -56.34 24.32 -56 25 C-53.75954589 26.06076737 -53.75954589 26.06076737 -51.125 27 C-48.06202491 28.14303444 -45.7433159 29.17112273 -43 31 C-43 29.68 -43 28.36 -43 27 C-40.03 26.67 -37.06 26.34 -34 26 C-33.67 25.01 -33.34 24.02 -33 23 C-31.02 22.67 -29.04 22.34 -27 22 C-26.67 20.68 -26.34 19.36 -26 18 C-24.68 17.67 -23.36 17.34 -22 17 C-21.95875 16.38125 -21.9175 15.7625 -21.875 15.125 C-21.441875 14.073125 -21.441875 14.073125 -21 13 C-18.125 11.875 -18.125 11.875 -15 11 C-14.01 10.34 -13.02 9.68 -12 9 C-10.68 9 -9.36 9 -8 9 C-8 8.01 -8 7.02 -8 6 C-5.35261084 4.5393715 -4.10551666 4 -1 4 C-0.67 2.68 -0.34 1.36 0 0 Z " fill="#CEEEFA" transform="translate(130,19)"/>
<path d="M0 0 C0.99 0 1.98 0 3 0 C3.02313183 12.74306797 3.0409194 25.48613097 3.05181217 38.22921562 C3.05703915 44.14581924 3.06413347 50.06240853 3.07543945 55.97900391 C3.08627487 61.68480699 3.09227823 67.39059627 3.09487724 73.09640884 C3.09673031 75.27738792 3.10034866 77.45836622 3.10573006 79.63933945 C3.11294914 82.68519497 3.11399057 85.73099282 3.11352539 88.77685547 C3.11712067 89.68603729 3.12071594 90.59521912 3.12442017 91.5319519 C3.11405216 97.77189568 3.11405216 97.77189568 2 100 C0.68 100 -0.64 100 -2 100 C-2 99.01 -2 98.02 -2 97 C-1.34 97 -0.68 97 0 97 C0 64.99 0 32.98 0 0 Z " fill="#C5B419" transform="translate(86,87)"/>
<path d="M0 0 C0.66 0 1.32 0 2 0 C2 0.66 2 1.32 2 2 C4.64 2 7.28 2 10 2 C10.2475 2.639375 10.495 3.27875 10.75 3.9375 C11.79688294 6.19895007 11.79688294 6.19895007 14.0625 6.5625 C15.0215625 6.7790625 15.0215625 6.7790625 16 7 C16.33 7.99 16.66 8.98 17 10 C20.00007271 11.70855022 20.00007271 11.70855022 23 13 C23 13.66 23 14.32 23 15 C24.98 15 26.96 15 29 15 C29 26.55 29 38.1 29 50 C28.01 50 27.02 50 26 50 C26 40.76 26 31.52 26 22 C25.34 22 24.68 22 24 22 C22.95703125 20.3203125 22.95703125 20.3203125 21.8125 18.125 C19.64288041 14.47711815 19.64288041 14.47711815 15.625 12.875 C14.42875 12.58625 13.2325 12.2975 12 12 C10.05281605 10.56164807 8.32728842 9.0113574 6.578125 7.33984375 C4.92555124 5.76799856 4.92555124 5.76799856 2 5 C0.8125 2.4375 0.8125 2.4375 0 0 Z " fill="#319DC9" transform="translate(86,52)"/>
<path d="M0 0 C2.375 0.25 2.375 0.25 5 1 C7.29305722 4.30974809 7.26140844 7.33705692 7.28710938 11.28149414 C7.30052368 12.55283707 7.31393799 13.82417999 7.32775879 15.13404846 C7.33032181 15.81045443 7.33288483 16.48686039 7.33552551 17.1837635 C7.34383315 19.30640176 7.3643529 21.42861361 7.38806152 23.5511322 C7.44439772 28.82039395 7.47969666 34.08975911 7.51568604 39.35919189 C7.54692585 43.81674461 7.58610741 48.27408912 7.63594055 52.73147392 C7.65600995 54.82264359 7.66432736 56.91365218 7.67224121 59.00489807 C7.68565552 60.27308884 7.69906982 61.5412796 7.71289062 62.84790039 C7.72018188 63.96612686 7.72747314 65.08435333 7.73498535 66.23646545 C7.80070282 69.21318959 7.80070282 69.21318959 10 72 C11.64333504 73.03789581 13.31243867 74.03567924 15 75 C15.70125 75.53625 16.4025 76.0725 17.125 76.625 C19.05737672 78.18913067 19.05737672 78.18913067 22 79 C22 79.66 22 80.32 22 81 C24.64 81.33 27.28 81.66 30 82 C30 82.99 30 83.98 30 85 C31.485 85.495 31.485 85.495 33 86 C30.1875 86.1875 30.1875 86.1875 27 86 C25.99706316 85.00294549 24.99766083 84.00233371 24 83 C22.07087537 81.94475234 20.10826543 80.94959342 18.125 80 C16.07642893 79.01422144 14.0344574 78.01458655 12 77 C11.08992188 76.54625 10.17984375 76.0925 9.2421875 75.625 C6.4527619 73.60339538 6.02842431 72.26246911 5 69 C4.73498535 66.07861328 4.73498535 66.07861328 4.71289062 62.8203125 C4.69276917 60.98315674 4.69276917 60.98315674 4.67224121 59.10888672 C4.66696411 57.7942041 4.66168701 56.47952148 4.65625 55.125 C4.64260128 53.75405738 4.62781297 52.38312568 4.61193848 51.01220703 C4.5556996 45.93914048 4.52036704 40.86596733 4.48431396 35.79272461 C4.45300551 31.50001386 4.41376472 27.20751635 4.36405945 22.91497803 C4.34406944 20.90708616 4.33581875 18.89908848 4.32775879 16.89111328 C4.30763733 15.05395752 4.30763733 15.05395752 4.28710938 13.1796875 C4.27981812 12.10444824 4.27252686 11.02920898 4.26501465 9.92138672 C3.88738094 5.75854475 2.96806609 2.96806609 0 0 Z " fill="#99CFA9" transform="translate(54,102)"/>
<path d="M0 0 C0.66 0 1.32 0 2 0 C1.96190522 8.76274748 1.90248914 17.52501875 1.81609726 26.28742409 C1.77664334 30.3565084 1.74444485 34.425377 1.72900391 38.49462891 C1.71382324 42.4241585 1.67935364 46.35309495 1.63169098 50.28236008 C1.61689154 51.77895314 1.6089598 53.2756309 1.60811615 54.77229691 C1.60574019 56.87438917 1.57861521 58.97485051 1.54589844 61.07666016 C1.53701599 62.27134918 1.52813354 63.46603821 1.51898193 64.69692993 C0.89092334 68.6942204 -0.45102319 70.8870925 -3 74 C-4.485 74.495 -4.485 74.495 -6 75 C-6.268125 75.66 -6.53625 76.32 -6.8125 77 C-7.4003125 77.99 -7.4003125 77.99 -8 79 C-10 79.33333333 -12 79.66666667 -14 80 C-15.16666667 81.91666667 -15.16666667 81.91666667 -16 84 C-18.99904936 86.0683099 -21.41302423 86.19927643 -25 86 C-24.67 85.01 -24.34 84.02 -24 83 C-21.66666667 82.33333333 -19.33333333 81.66666667 -17 81 C-16.67 80.01 -16.34 79.02 -16 78 C-14.29842323 77.21465687 -12.59111893 76.43736106 -10.84765625 75.75 C-6.83013423 74.11920882 -4.41316185 72.61974277 -2 69 C-1.67711844 66.0965138 -1.67711844 66.0965138 -1.69702148 62.75610352 C-1.68037949 61.467892 -1.66373749 60.17968048 -1.64659119 58.85243225 C-1.63802842 57.44459064 -1.62953086 56.03674862 -1.62109375 54.62890625 C-1.60491626 53.18544899 -1.58773599 51.74200265 -1.56959534 50.29856873 C-1.52389903 46.49764057 -1.4891046 42.69669768 -1.45739746 38.89562988 C-1.40554168 32.8151415 -1.34024958 26.73481471 -1.26918221 20.65452385 C-1.24639394 18.53186833 -1.23009199 16.40923304 -1.21446228 14.28651428 C-1.20097244 12.9951506 -1.1874826 11.70378693 -1.17358398 10.37329102 C-1.16407211 9.23650406 -1.15456024 8.0997171 -1.14476013 6.92848206 C-1.02179754 4.44096183 -0.72378053 2.369937 0 0 Z " fill="#F6D576" transform="translate(112,102)"/>
<path d="M0 0 C3.0625 0.25 3.0625 0.25 6.0625 2.25 C7.238125 2.559375 8.41375 2.86875 9.625 3.1875 C13.0625 4.25 13.0625 4.25 15.0625 7.25 C17.9119543 9.17757203 20.91717073 10.67850518 24 12.1875 C27.59055657 13.96917769 30.86077154 15.82918092 34.0625 18.25 C34.5575 19.735 34.5575 19.735 35.0625 21.25 C37.37759935 22.6853616 39.65771278 23.98606656 42.0625 25.25 C48.91810054 28.96120108 48.91810054 28.96120108 50.0625 31.25 C44.69601555 30.46081111 40.54203152 28.23635435 36.0625 25.25 C36.0625 24.59 36.0625 23.93 36.0625 23.25 C34.4125 22.92 32.7625 22.59 31.0625 22.25 C31.0625 21.26 31.0625 20.27 31.0625 19.25 C28.4225 18.92 25.7825 18.59 23.0625 18.25 C22.5675 16.765 22.5675 16.765 22.0625 15.25 C19.84299805 13.86444007 17.54334902 12.77278853 15.19140625 11.62890625 C13.0625 10.25 13.0625 10.25 12.09765625 8.13671875 C11.58525391 7.20279297 11.58525391 7.20279297 11.0625 6.25 C8.64570293 5.54823412 8.64570293 5.54823412 5.9375 5.5 C5.02742188 5.44328125 4.11734375 5.3865625 3.1796875 5.328125 C2.48101562 5.30234375 1.78234375 5.2765625 1.0625 5.25 C1.0625 4.26 1.0625 3.27 1.0625 2.25 C0.4025 2.25 -0.2575 2.25 -0.9375 2.25 C-0.9375 3.24 -0.9375 4.23 -0.9375 5.25 C-1.54078125 5.38277344 -2.1440625 5.51554687 -2.765625 5.65234375 C-3.56484375 5.82894531 -4.3640625 6.00554688 -5.1875 6.1875 C-6.37085938 6.44853516 -6.37085938 6.44853516 -7.578125 6.71484375 C-9.70628703 7.197556 -11.82282842 7.71163178 -13.9375 8.25 C-11.1332631 5.13418123 -8.84500982 3.68960888 -4.9375 2.25 C-2.9375 0.25 -2.9375 0.25 0 0 Z " fill="#EB8C86" transform="translate(33.9375,20.75)"/>
<path d="M0 0 C4.95 0.99 4.95 0.99 10 2 C10 3.32 10 4.64 10 6 C12.64 6.33 15.28 6.66 18 7 C18.33 30.76 18.66 54.52 19 79 C15.43127697 75.43127697 15.62136114 74.69864252 15.59936523 69.84790039 C15.58602646 68.57970963 15.57268768 67.31151886 15.5589447 66.00489807 C15.55880948 64.6191508 15.55869295 63.23340353 15.55859375 61.84765625 C15.54682187 60.42661679 15.5334581 59.0055897 15.51856995 57.58457947 C15.48236219 53.84279328 15.46217784 50.10111667 15.44702148 46.35919189 C15.42220604 40.37341935 15.38249602 34.38788918 15.32512093 28.40234184 C15.30880996 26.31285301 15.30501566 24.22359308 15.30210876 22.13404846 C15.28682884 20.22703407 15.28682884 20.22703407 15.27124023 18.28149414 C15.26696518 17.16247208 15.26269012 16.04345001 15.25828552 14.89051819 C15.00247656 12.02771557 14.59207669 10.37154374 13 8 C10.70465742 6.86454438 10.70465742 6.86454438 8 6 C2.28037383 3.42056075 2.28037383 3.42056075 0 0 Z " fill="#5FB978" transform="translate(45,95)"/>
<path d="M0 0 C0.99 0 1.98 0 3 0 C3 0.66 3 1.32 3 2 C3.763125 2.144375 4.52625 2.28875 5.3125 2.4375 C8 3 8 3 11 4 C11.33 4.66 11.66 5.32 12 6 C12.928125 6.4640625 12.928125 6.4640625 13.875 6.9375 C16.11499325 8.05749662 17.27542004 9.20643684 19 11 C21.54820635 13.21291604 23.59065601 14.84184437 26.75 16.0625 C27.4925 16.371875 28.235 16.68125 29 17 C29.33 17.99 29.66 18.98 30 20 C30.99 20.33 31.98 20.66 33 21 C33.99 21.33 34.98 21.66 36 22 C36.495 23.485 36.495 23.485 37 25 C38.64455275 25.71949183 40.31923769 26.36971413 42 27 C47.43241183 29.66699929 52.08723499 32.32992563 56 37 C56 37.66 56 38.32 56 39 C55.34 39 54.68 39 54 39 C53.505 37.02 53.505 37.02 53 35 C51.88625 35.020625 50.7725 35.04125 49.625 35.0625 C46 35 46 35 44 34 C43.67 33.01 43.34 32.02 43 31 C40.7552529 28.19406612 38.3529984 27.17808052 35 26 C35 25.34 35 24.68 35 24 C34.443125 23.87625 33.88625 23.7525 33.3125 23.625 C30.77885636 22.94023145 28.42078968 22.00866237 26 21 C26 20.01 26 19.02 26 18 C24.88625 17.9175 23.7725 17.835 22.625 17.75 C19 17 19 17 17.75 15.125 C17.5025 14.42375 17.255 13.7225 17 13 C15.0435312 10.17398951 13.16926944 9.73456779 9.9375 9.0625 C6.15213523 8.22820285 6.15213523 8.22820285 4.75 6.125 C4.37875 5.073125 4.37875 5.073125 4 4 C2.70529025 2.62913085 1.37849103 1.28659163 0 0 Z " fill="#7D8046" transform="translate(30,52)"/>
<path d="M0 0 C0.66 0 1.32 0 2 0 C2.09261813 9.20537029 2.163723 18.41058058 2.20724869 27.61631489 C2.22813731 31.89078014 2.25647767 36.164927 2.30175781 40.43920898 C2.34517093 44.56298648 2.3691275 48.68645744 2.37950897 52.81044579 C2.38690858 54.3849794 2.40135824 55.95949595 2.42292023 57.53389931 C2.45189553 59.7369189 2.4559587 61.9386667 2.45410156 64.1418457 C2.46298401 65.39649124 2.47186646 66.65113678 2.48101807 67.94380188 C2 71 2 71 0.17474365 72.91691589 C-2.656159 74.32678582 -4.88126725 74.21264087 -8 74 C-7 72 -7 72 -4 71 C-1.02352055 67.14896551 -0.61349308 64.17137591 -0.56762695 59.3737793 C-0.5574353 58.72931351 -0.54724365 58.08484772 -0.53674316 57.42085266 C-0.50671418 55.30521844 -0.49736331 53.19003771 -0.48828125 51.07421875 C-0.47142696 49.60161344 -0.4532757 48.12902245 -0.43388367 46.65644836 C-0.3864585 42.79153926 -0.35660105 38.92668823 -0.33044434 35.06158447 C-0.30060081 31.11320529 -0.25408358 27.16502606 -0.20898438 23.21679688 C-0.12303654 15.47796396 -0.05565373 7.73911637 0 0 Z " fill="#FAEABB" transform="translate(113,104)"/>
<path d="M0 0 C0.66 0.33 1.32 0.66 2 1 C1.51321777 1.68698975 1.02643555 2.37397949 0.52490234 3.08178711 C-1.28410472 6.54369257 -1.38712228 8.80139587 -1.3984375 12.69140625 C-1.40230469 13.96564453 -1.40617188 15.23988281 -1.41015625 16.55273438 C-1.40387207 17.21104248 -1.39758789 17.86935059 -1.39111328 18.54760742 C-1.37501664 20.56041982 -1.39100356 22.57123304 -1.41015625 24.58398438 C-1.40628906 25.85693359 -1.40242187 27.12988281 -1.3984375 28.44140625 C-1.39505371 29.60357666 -1.39166992 30.76574707 -1.38818359 31.96313477 C-0.96479911 35.27538612 -0.2860632 36.61896059 2 39 C3.94745312 40.23661841 3.94745312 40.23661841 6.0625 41.125 C8.60195333 42.26940914 9.99870782 42.99870782 12 45 C14.32275177 45.40047444 16.65739357 45.7397104 19 46 C19.33 47.32 19.66 48.64 20 50 C20.99 50 21.98 50 23 50 C23 50.66 23 51.32 23 52 C24.32 52.66 25.64 53.32 27 54 C23.76138705 54 21.90259811 53.3749149 19 52 C18.67 51.34 18.34 50.68 18 50 C15.67328135 48.98470459 13.3396553 47.98511802 11 47 C10.34 46.34 9.68 45.68 9 45 C8.071875 44.690625 7.14375 44.38125 6.1875 44.0625 C3.10529769 43.03509923 0.72539917 41.74122725 -2 40 C-2.66 39.67 -3.32 39.34 -4 39 C-4.09884645 33.92803651 -4.17145653 28.856633 -4.21972656 23.78393555 C-4.23984739 22.05825027 -4.26714748 20.33263322 -4.30175781 18.60717773 C-4.35025758 16.1272703 -4.37296304 13.64826372 -4.390625 11.16796875 C-4.41127014 10.39599655 -4.43191528 9.62402435 -4.45318604 8.82865906 C-4.45410156 6.64526367 -4.45410156 6.64526367 -4 3 C-1.97558594 0.98950195 -1.97558594 0.98950195 0 0 Z " fill="#CBE7D2" transform="translate(9,34)"/>
<path d="M0 0 C1.4375 1.25 1.4375 1.25 3 3 C6.51745305 5.2501354 10.23735483 7.19393032 14 9 C14 9.66 14 10.32 14 11 C8.25 10.125 8.25 10.125 6 9 C6 8.34 6 7.68 6 7 C5.236875 6.896875 4.47375 6.79375 3.6875 6.6875 C0.73421485 5.93200845 0.04132166 5.13007477 -2 3 C-4.10332891 2.28552357 -4.10332891 2.28552357 -6 2 C-6 2.66 -6 3.32 -6 4 C-6.66 4 -7.32 4 -8 4 C-8.33 4.99 -8.66 5.98 -9 7 C-10.32 7 -11.64 7 -13 7 C-13.33 7.99 -13.66 8.98 -14 10 C-16.31104818 11.05047644 -18.64583651 12.05007438 -21 13 C-21.66 13.66 -22.32 14.32 -23 15 C-23.99 15 -24.98 15 -26 15 C-26.1546875 15.9590625 -26.1546875 15.9590625 -26.3125 16.9375 C-26.539375 17.618125 -26.76625 18.29875 -27 19 C-27.99 19.33 -28.98 19.66 -30 20 C-30.73323796 22.01508358 -30.73323796 22.01508358 -31 24 C-33.31 24 -35.62 24 -38 24 C-34.01612706 19.767135 -29.7098988 16.39346746 -25 13 C-24.45537109 12.60554688 -23.91074219 12.21109375 -23.34960938 11.8046875 C-21.50628528 10.47062413 -19.66001383 9.1407543 -17.8125 7.8125 C-17.21832275 7.38428955 -16.62414551 6.9560791 -16.01196289 6.51489258 C-5.83235105 -0.76074144 -5.83235105 -0.76074144 0 0 Z " fill="#6ACCF5" transform="translate(141,20)"/>
<path d="M0 0 C0.66 0 1.32 0 2 0 C2 0.99 2 1.98 2 3 C3.32 3.33 4.64 3.66 6 4 C2.37 4 -1.26 4 -5 4 C-5 4.99 -5 5.98 -5 7 C-7.64738916 8.4606285 -8.89448334 9 -12 9 C-12 9.66 -12 10.32 -12 11 C-13.65 11.66 -15.3 12.32 -17 13 C-17 14.98 -17 16.96 -17 19 C-16.4225 19.12375 -15.845 19.2475 -15.25 19.375 C-12.97664233 20.00648824 -11.0746471 20.88858191 -9 22 C-9 22.66 -9 23.32 -9 24 C-8.34 24 -7.68 24 -7 24 C-5.61767557 25.62626404 -4.28062485 27.2925002 -3 29 C-7.99913315 27.14317911 -11.98567812 25.52148281 -15 21 C-17.02852466 19.90899389 -19.09818996 19.04759154 -21.22265625 18.16015625 C-23 17 -23 17 -23.87109375 15.05859375 C-24 13 -24 13 -22 10 C-20.68 10 -19.36 10 -18 10 C-18 9.01 -18 8.02 -18 7 C-11.95942424 4.72942897 -6.43681228 3.51085812 0 3 C0 2.01 0 1.02 0 0 Z " fill="#E85D51" transform="translate(33,23)"/>
<path d="M0 0 C1.67225729 0.30404678 3.33753959 0.64628502 5 1 C6.216875 1.2475 7.43375 1.495 8.6875 1.75 C12 3 12 3 13.1875 5.5625 C13.455625 6.366875 13.72375 7.17125 14 8 C15.33199474 8.33864273 16.66553678 8.67121921 18 9 C19.67578125 10.33984375 19.67578125 10.33984375 21.3125 11.9375 C23.97078613 14.35049364 25.06977009 15.0189207 28.6875 16 C32 17 32 17 34.4375 20 C36 23 36 23 36 25 C35.34 25 34.68 25 34 25 C34 24.34 34 23.68 34 23 C33.01 23 32.02 23 31 23 C31 22.34 31 21.68 31 21 C29.35 20.67 27.7 20.34 26 20 C26 19.01 26 18.02 26 17 C24.35 16.67 22.7 16.34 21 16 C21 15.01 21 14.02 21 13 C19.8553125 12.7834375 19.8553125 12.7834375 18.6875 12.5625 C16 12 16 12 13 11 C13 10.01 13 9.02 13 8 C11.35 8 9.7 8 8 8 C8 6.68 8 5.36 8 4 C6.02 4 4.04 4 2 4 C1.34 2.68 0.68 1.36 0 0 Z " fill="#BB5A5C" transform="translate(74,49)"/>
<path d="M0 0 C0.33 1.32 0.66 2.64 1 4 C1.66 4 2.32 4 3 4 C3 12.91 3 21.82 3 31 C4.65 31 6.3 31 8 31 C8.3403125 31.9590625 8.3403125 31.9590625 8.6875 32.9375 C9.83913693 35.25653741 9.83913693 35.25653741 12.5 35.6875 C13.325 35.790625 14.15 35.89375 15 36 C15.66 36.33 16.32 36.66 17 37 C17 37.99 17 38.98 17 40 C12.98688554 39.38259778 10.28965958 37.28262093 7 35 C6.0925 34.484375 5.185 33.96875 4.25 33.4375 C2 32 2 32 0 29 C-0.22705078 25.99731445 -0.22705078 25.99731445 -0.1953125 22.36328125 C-0.18886719 21.06455078 -0.18242188 19.76582031 -0.17578125 18.42773438 C-0.1590706 17.05598693 -0.14214071 15.68424214 -0.125 14.3125 C-0.11496674 12.92904282 -0.10584149 11.54557873 -0.09765625 10.16210938 C-0.07404967 6.77456548 -0.04112037 3.38736928 0 0 Z " fill="#6ABD81" transform="translate(7,40)"/>
<path d="M0 0 C5.44834646 0.48429746 5.44834646 0.48429746 7.66333008 2.55493164 C9.50837793 5.92993698 9.52468436 9.1132005 9.57421875 12.87109375 C9.5889473 13.63043716 9.60367584 14.38978058 9.61885071 15.1721344 C9.64275434 16.77489196 9.65820827 18.37779493 9.66577148 19.98071289 C9.6874145 22.42783257 9.76763326 24.8687094 9.84960938 27.31445312 C10.04506904 38.6884346 10.04506904 38.6884346 7.30444336 42.12792969 C5.22215515 43.43240286 3.32068784 44.21662609 1 45 C-0.28350086 45.77095979 -1.55528052 46.56188706 -2.8125 47.375 C-3.864375 47.91125 -4.91625 48.4475 -6 49 C-6.99 48.67 -7.98 48.34 -9 48 C-8.1646875 47.6596875 -8.1646875 47.6596875 -7.3125 47.3125 C-4.80327336 46.030061 -4.80327336 46.030061 -2.5625 43.5 C-0.02261898 41.0220673 1.73129227 40.18036668 5 39 C6.50606515 35.98786971 6.12160331 32.88717378 6.09765625 29.5859375 C6.0962413 28.85629791 6.09482635 28.12665833 6.09336853 27.37490845 C6.08776531 25.04156415 6.07521235 22.70831536 6.0625 20.375 C6.05748541 18.79427222 6.05292243 17.21354293 6.04882812 15.6328125 C6.03779484 11.75517146 6.02052811 7.87760193 6 4 C4.02 3.01 2.04 2.02 0 1 C0 0.67 0 0.34 0 0 Z " fill="#9ADAF7" transform="translate(157,32)"/>
<path d="M0 0 C0.33 0 0.66 0 1 0 C1 30.36 1 60.72 1 92 C1.66 92 2.32 92 3 92 C2.67 93.32 2.34 94.64 2 96 C0.68 96 -0.64 96 -2 96 C-2 95.01 -2 94.02 -2 93 C-1.34 93 -0.68 93 0 93 C0 62.31 0 31.62 0 0 Z " fill="#A1B32C" transform="translate(86,91)"/>
<path d="M0 0 C0.33 0.66 0.66 1.32 1 2 C2.65697379 2.69040574 4.3255761 3.3530635 6 4 C8.8125 5.5 8.8125 5.5 11 7 C11 7.66 11 8.32 11 9 C11.66 9.33 12.32 9.66 13 10 C6.375 9.375 6.375 9.375 3 6 C3 14.91 3 23.82 3 33 C2.34 33 1.68 33 1 33 C1 24.09 1 15.18 1 6 C0.34 6 -0.32 6 -1 6 C-1.042721 4.33388095 -1.04063832 2.66617115 -1 1 C-0.67 0.67 -0.34 0.34 0 0 Z " fill="#46AF62" transform="translate(9,38)"/>
<path d="M0 0 C1.32 0 2.64 0 4 0 C4 10.56 4 21.12 4 32 C3.01 32 2.02 32 1 32 C0.67 21.44 0.34 10.88 0 0 Z " fill="#B4B64D" transform="translate(108,74)"/>
<path d="M0 0 C1.9375 0.3125 1.9375 0.3125 4 1 C4.33 1.99 4.66 2.98 5 4 C5.66 4.33 6.32 4.66 7 5 C7 13.91 7 22.82 7 32 C6.34 32 5.68 32 5 32 C4.67 33.32 4.34 34.64 4 36 C3.98541748 35.08710205 3.97083496 34.1742041 3.95581055 33.23364258 C3.89459205 29.83201389 3.82041127 26.43117319 3.73754883 23.0300293 C3.70438741 21.56073578 3.67632822 20.09131756 3.65356445 18.62182617 C3.61985481 16.50385632 3.56753567 14.38702005 3.51171875 12.26953125 C3.48553467 10.99698486 3.45935059 9.72443848 3.43237305 8.41333008 C2.97999718 4.84208956 2.07901338 2.89706521 0 0 Z " fill="#26B4F5" transform="translate(156,35)"/>
<path d="M0 0 C1.32 0.33 2.64 0.66 4 1 C3.01 1.33 2.02 1.66 1 2 C1 2.66 1 3.32 1 4 C0.071875 4.433125 -0.85625 4.86625 -1.8125 5.3125 C-4.53402693 6.75330838 -5.94268891 7.84472171 -8 10 C-8.99 10.33 -9.98 10.66 -11 11 C-13.16314701 12.90094737 -14.73983303 14.42763266 -15.9375 17.0625 C-17.40908281 19.74597453 -19.33962843 20.57248355 -22 22 C-22.99 22.66 -23.98 23.32 -25 24 C-27.6875 23.625 -27.6875 23.625 -30 23 C-30 22.34 -30 21.68 -30 21 C-29.48050781 20.74605469 -28.96101563 20.49210937 -28.42578125 20.23046875 C-20.87847882 16.58137619 -20.87847882 16.58137619 -14.375 11.375 C-12 9 -12 9 -9 8 C-8.67 7.01 -8.34 6.02 -8 5 C-6.00428677 4.32060826 -4.00405227 3.65438441 -2 3 C-1.34 2.01 -0.68 1.02 0 0 Z " fill="#D0EDF9" transform="translate(144,81)"/>
<path d="M0 0 C2.4375 0.375 2.4375 0.375 5 1 C5.33 1.66 5.66 2.32 6 3 C8.24045411 4.06076737 8.24045411 4.06076737 10.875 5 C13.93797509 6.14303444 16.2566841 7.17112273 19 9 C19 7.68 19 6.36 19 5 C23.455 4.505 23.455 4.505 28 4 C28.33 3.01 28.66 2.02 29 1 C31.0625 0.3125 31.0625 0.3125 33 0 C29.54354264 5.61674321 26.41737058 9.0052345 20 11 C15.40015747 11 11.83856526 8.31777776 8 6 C6.70899579 5.29045999 5.41735037 4.58208514 4.125 3.875 C1 2 1 2 0 0 Z " fill="#C8EBFA" transform="translate(68,41)"/>
<path d="M0 0 C0.33 0 0.66 0 1 0 C1 21.78 1 43.56 1 66 C2.32 66.66 3.64 67.32 5 68 C5.33 68.99 5.66 69.98 6 71 C3.5625 70.625 3.5625 70.625 1 70 C-0.4278535 67.14429301 -0.11941486 64.72285644 -0.11352539 61.53076172 C-0.11367142 60.86722687 -0.11381744 60.20369202 -0.1139679 59.52005005 C-0.11327031 57.32322947 -0.10548514 55.1264933 -0.09765625 52.9296875 C-0.09579152 51.40796963 -0.09436788 49.88625116 -0.09336853 48.36453247 C-0.08954767 44.35648953 -0.07972104 40.34848274 -0.06866455 36.3404541 C-0.05844118 32.25171396 -0.05386892 28.16296799 -0.04882812 24.07421875 C-0.0380984 16.04946256 -0.02102713 8.02473578 0 0 Z " fill="#E4F2E8" transform="translate(56,106)"/>
<path d="M0 0 C1.32 0 2.64 0 4 0 C3.62899407 2.56430566 3.33994311 3.71247803 1.328125 5.4140625 C0.64234375 5.81367187 -0.0434375 6.21328125 -0.75 6.625 C-1.47058594 7.0478125 -2.19117187 7.470625 -2.93359375 7.90625 C-5.22773509 9.12054031 -7.59211912 10.03684765 -10 11 C-10.495 11.515625 -10.99 12.03125 -11.5 12.5625 C-13.49877752 14.47799512 -15.32735634 14.50767091 -18 15 C-18.33 15.66 -18.66 16.32 -19 17 C-20.32 15.35 -21.64 13.7 -23 12 C-20.03 12 -17.06 12 -14 12 C-13.67 10.68 -13.34 9.36 -13 8 C-11.02 8 -9.04 8 -7 8 C-7 7.34 -7 6.68 -7 6 C-6.34 6 -5.68 6 -5 6 C-5 5.34 -5 4.68 -5 4 C-3.35 4 -1.7 4 0 4 C0 2.68 0 1.36 0 0 Z " fill="#E66F2C" transform="translate(104,72)"/>
<path d="M0 0 C2.375 0.25 2.375 0.25 5 1 C7.29607968 4.30880688 7.24282635 7.29341247 7.22705078 11.23730469 C7.22689972 12.49830994 7.22674866 13.75931519 7.22659302 15.05853271 C7.21638056 16.42964842 7.20594858 17.80076251 7.1953125 19.171875 C7.19158057 20.57863158 7.18873445 21.98539077 7.18673706 23.39215088 C7.17911476 27.08786239 7.15947845 30.78341575 7.1373291 34.47906494 C7.11684036 38.25294862 7.10772888 42.02685794 7.09765625 45.80078125 C7.07623112 53.20059279 7.04211226 60.6002742 7 68 C6.67 68 6.34 68 6 68 C5.67 46.55 5.34 25.1 5 3 C2.525 2.01 2.525 2.01 0 1 C0 0.67 0 0.34 0 0 Z " fill="#7EC493" transform="translate(54,102)"/>
<path d="M0 0 C3.16115776 1.36983503 3.9927092 1.9890638 6 5 C6.31884766 7.91088867 6.31884766 7.91088867 6.4140625 11.41796875 C6.45273438 12.67158203 6.49140625 13.92519531 6.53125 15.21679688 C6.5621875 16.52712891 6.593125 17.83746094 6.625 19.1875 C6.66319338 20.5228116 6.70224591 21.85809892 6.7421875 23.19335938 C6.83659153 26.46209888 6.92217017 29.73083064 7 33 C6.01 33 5.02 33 4 33 C4 23.76 4 14.52 4 5 C3.34 5 2.68 5 2 5 C1.34 3.35 0.68 1.7 0 0 Z " fill="#67AC95" transform="translate(108,69)"/>
<path d="M0 0 C1.4375 1.25 1.4375 1.25 3 3 C6.51745305 5.2501354 10.23735483 7.19393032 14 9 C14 9.66 14 10.32 14 11 C8.25 10.125 8.25 10.125 6 9 C6 8.34 6 7.68 6 7 C4.8553125 6.8453125 4.8553125 6.8453125 3.6875 6.6875 C1 6 1 6 -0.4375 4.4375 C-2.01045802 2.70408744 -2.01045802 2.70408744 -4.9375 2.6875 C-7.84532863 2.98421721 -9.53984665 3.48605948 -12 5 C-8.72184067 0.16081242 -5.7730344 -0.4810862 0 0 Z " fill="#81D4F5" transform="translate(141,20)"/>
<path d="M0 0 C0.33 1.32 0.66 2.64 1 4 C0.46375 3.67 -0.0725 3.34 -0.625 3 C-3.62934544 1.73501245 -5.76767442 1.65613558 -9 2 C-10.60411246 3.35405861 -10.60411246 3.35405861 -12 5 C-14.375 6.0625 -14.375 6.0625 -17 7 C-17.928125 7.37125 -18.85625 7.7425 -19.8125 8.125 C-20.534375 8.41375 -21.25625 8.7025 -22 9 C-22 7.35 -22 5.7 -22 4 C-19.36 3.67 -16.72 3.34 -14 3 C-14 2.01 -14 1.02 -14 0 C-8.97703996 -1.13016601 -5.02125926 -0.77916092 0 0 Z " fill="#F9DFDC" transform="translate(40,20)"/>
<path d="M0 0 C1.32 0.33 2.64 0.66 4 1 C3.01 1 2.02 1 1 1 C1 1.99 1 2.98 1 4 C-5.625 6.875 -5.625 6.875 -9 8 C-9 19.55 -9 31.1 -9 43 C-9.33 43 -9.66 43 -10 43 C-10.02467917 37.76725612 -10.04285003 32.53454597 -10.05493164 27.30175781 C-10.05996711 25.52082733 -10.06679581 23.739901 -10.07543945 21.95898438 C-10.08753942 19.40233335 -10.09323609 16.84573688 -10.09765625 14.2890625 C-10.10281754 13.49005524 -10.10797882 12.69104797 -10.11329651 11.86782837 C-10.11387171 6.22774341 -10.11387171 6.22774341 -9 4 C-6.35139573 3.40644386 -3.70802678 3.25790731 -1 3 C-0.67 2.01 -0.34 1.02 0 0 Z " fill="#EDE9E2" transform="translate(14,29)"/>
<path d="M0 0 C0.66 0.33 1.32 0.66 2 1 C0.68 1.33 -0.64 1.66 -2 2 C-2.04125 2.763125 -2.0825 3.52625 -2.125 4.3125 C-3 7 -3 7 -5.5625 8.5625 C-7.2640625 9.2740625 -7.2640625 9.2740625 -9 10 C-10.42239388 10.67557112 -11.83900732 11.36342894 -13.25 12.0625 C-14.24773437 12.54396484 -14.24773437 12.54396484 -15.265625 13.03515625 C-17.17805279 13.99527303 -17.17805279 13.99527303 -19 16 C-19.99 15.67 -20.98 15.34 -22 15 C-19.22969371 12.02448584 -16.53943216 9.98553511 -13 8 C-12.113125 7.443125 -11.22625 6.88625 -10.3125 6.3125 C-8 5 -8 5 -6 5 C-6 4.34 -6 3.68 -6 3 C-4.03533587 1.93224776 -2.03144641 0.93446535 0 0 Z " fill="#D7F0FA" transform="translate(151,80)"/>
<path d="M0 0 C0.99 0 1.98 0 3 0 C3 0.66 3 1.32 3 2 C3.763125 2.144375 4.52625 2.28875 5.3125 2.4375 C8 3 8 3 11 4 C11.33 4.66 11.66 5.32 12 6 C12.928125 6.4640625 12.928125 6.4640625 13.875 6.9375 C16.13634002 8.06817001 17.29032001 9.15354561 19 11 C19.886875 11.886875 20.77375 12.77375 21.6875 13.6875 C22.450625 14.450625 23.21375 15.21375 24 16 C18.45801527 14.48854962 18.45801527 14.48854962 16.125 12 C13.81925968 9.82989146 12.87976988 9.60527739 9.875 9 C6.14341917 8.21512876 6.14341917 8.21512876 4.75 6.125 C4.37875 5.073125 4.37875 5.073125 4 4 C2.70529025 2.62913085 1.37849103 1.28659163 0 0 Z " fill="#986E42" transform="translate(30,52)"/>
<path d="M0 0 C0.66 0 1.32 0 2 0 C2 0.66 2 1.32 2 2 C4.64 2 7.28 2 10 2 C10.061875 3.0828125 10.061875 3.0828125 10.125 4.1875 C11.38352165 8.23274817 13.63589117 9.49481257 17 12 C15.25390625 12.7109375 15.25390625 12.7109375 13 13 C10.96484375 11.6015625 10.96484375 11.6015625 8.9375 9.625 C6.49163406 7.26833071 5.26745798 6.08915266 2 5 C0.8125 2.4375 0.8125 2.4375 0 0 Z " fill="#259DD5" transform="translate(86,52)"/>
<path d="M0 0 C3.40110553 0.34011055 4.73341421 0.92091421 7.125 3.3125 C7.125 3.9725 7.125 4.6325 7.125 5.3125 C7.785 5.6425 8.445 5.9725 9.125 6.3125 C6.485 5.9825 3.845 5.6525 1.125 5.3125 C1.125 4.3225 1.125 3.3325 1.125 2.3125 C0.465 2.3125 -0.195 2.3125 -0.875 2.3125 C-0.875 3.3025 -0.875 4.2925 -0.875 5.3125 C-1.47828125 5.44527344 -2.0815625 5.57804687 -2.703125 5.71484375 C-3.50234375 5.89144531 -4.3015625 6.06804688 -5.125 6.25 C-6.30835938 6.51103516 -6.30835938 6.51103516 -7.515625 6.77734375 C-9.64378703 7.260056 -11.76032842 7.77413178 -13.875 8.3125 C-11.0707631 5.19668123 -8.78250982 3.75210888 -4.875 2.3125 C-2.875 0.3125 -2.875 0.3125 0 0 Z " fill="#EB8179" transform="translate(33.875,20.6875)"/>
<path d="M0 0 C-1.98 0.33 -3.96 0.66 -6 1 C-6.103125 1.639375 -6.20625 2.27875 -6.3125 2.9375 C-6.539375 3.618125 -6.76625 4.29875 -7 5 C-7.99 5.33 -8.98 5.66 -10 6 C-10.78375 6.78375 -11.5675 7.5675 -12.375 8.375 C-14.83969312 10.83969312 -16.97037229 12.33370476 -20 14 C-20.886875 14.5775 -21.77375 15.155 -22.6875 15.75 C-23.450625 16.1625 -24.21375 16.575 -25 17 C-25.66 16.67 -26.32 16.34 -27 16 C-26.34 14.68 -25.68 13.36 -25 12 C-23.35 12 -21.7 12 -20 12 C-20 11.01 -20 10.02 -20 9 C-18.329375 8.5978125 -18.329375 8.5978125 -16.625 8.1875 C-12.78159049 7.34190981 -12.78159049 7.34190981 -11 4 C-10.01 3.67 -9.02 3.34 -8 3 C-7.67 2.01 -7.34 1.02 -7 0 C-3.86650268 -1.04449911 -3.01031744 -0.93423645 0 0 Z " fill="#4AC2F6" transform="translate(142,85)"/>
<path d="M0 0 C0.33 0.99 0.66 1.98 1 3 C0.34 3 -0.32 3 -1 3 C-1.309375 3.9590625 -1.309375 3.9590625 -1.625 4.9375 C-3 7 -3 7 -6.125 7.75 C-7.07375 7.8325 -8.0225 7.915 -9 8 C-9 8.99 -9 9.98 -9 11 C-11.95664519 12.4783226 -14.74229737 12.06032783 -18 12 C-17.0409375 11.5978125 -17.0409375 11.5978125 -16.0625 11.1875 C-13.66868314 10.11332248 -13.66868314 10.11332248 -13 7 C-11.328125 5.9375 -11.328125 5.9375 -9.25 5 C-6.04031895 3.49907001 -3.00938175 1.88086359 0 0 Z " fill="#F2A516" transform="translate(107,75)"/>
<path d="M0 0 C0.50789063 0.39832031 1.01578125 0.79664063 1.5390625 1.20703125 C5.53903498 4.28566175 9.36879143 6.91595614 14 9 C14 9.66 14 10.32 14 11 C16.64 11.33 19.28 11.66 22 12 C22 12.99 22 13.98 22 15 C22.99 15.33 23.98 15.66 25 16 C22.1875 16.1875 22.1875 16.1875 19 16 C17.99031211 15.00978267 16.99139568 14.00853091 16 13 C13.8365314 11.93651868 13.8365314 11.93651868 11.5 11.0625 C7.89637318 9.54303861 6.12342059 8.35276935 4 5 C1.91665365 3.7483533 1.91665365 3.7483533 0 3 C0 2.01 0 1.02 0 0 Z " fill="#8EC893" transform="translate(62,172)"/>
<path d="M0 0 C1.65 0.33 3.3 0.66 5 1 C5 2.65 5 4.3 5 6 C5.86625 6.185625 5.86625 6.185625 6.75 6.375 C9.02335767 7.00648824 10.9253529 7.88858191 13 9 C13 9.66 13 10.32 13 11 C13.66 11 14.32 11 15 11 C16.38232443 12.62626404 17.71937515 14.2925002 19 16 C14.00086685 14.14317911 10.01432188 12.52148281 7 8 C5.0533929 6.78581167 5.0533929 6.78581167 2.875 5.8125 C2.15054687 5.46832031 1.42609375 5.12414063 0.6796875 4.76953125 C0.12539062 4.51558594 -0.42890625 4.26164062 -1 4 C-0.67 2.68 -0.34 1.36 0 0 Z " fill="#AB6844" transform="translate(11,36)"/>
<path d="M0 0 C2.875 0.3125 2.875 0.3125 6 1 C6.66 1.99 7.32 2.98 8 4 C10.8494543 5.92757203 13.85467073 7.42850518 16.9375 8.9375 C20.51704719 10.6967082 23.73438006 12.71406604 27 15 C26.67 15.66 26.34 16.32 26 17 C25.360625 16.608125 24.72125 16.21625 24.0625 15.8125 C21.60563001 14.35843409 19.13389148 12.98451897 16.625 11.625 C13.68574366 10.00889726 10.94560158 8.30771602 8.25 6.3125 C5.48195243 4.34292769 3.19554161 3.06518054 0 2 C0 1.34 0 0.68 0 0 Z " fill="#F1BBB7" transform="translate(41,24)"/>
<path d="M0 0 C3.92626592 0.71562482 7.12689186 2.50355163 10.625 4.375 C11.77226563 4.98085937 12.91953125 5.58671875 14.1015625 6.2109375 C17 8 17 8 19 11 C11.21428571 10.10164835 11.21428571 10.10164835 8 8 C7.67 7.34 7.34 6.68 7 6 C4.97536745 5.34786708 4.97536745 5.34786708 3 5 C2.87625 4.360625 2.7525 3.72125 2.625 3.0625 C2.315625 2.0415625 2.315625 2.0415625 2 1 C1.34 0.67 0.68 0.34 0 0 Z " fill="#D9ECDE" transform="translate(62,177)"/>
<path d="M0 0 C0.66 0.33 1.32 0.66 2 1 C1.51249268 1.68698975 1.02498535 2.37397949 0.52270508 3.08178711 C-1.2874984 6.55098099 -1.37326614 8.79487015 -1.36328125 12.69140625 C-1.36263672 13.96564453 -1.36199219 15.23988281 -1.36132812 16.55273438 C-1.35302979 17.21104248 -1.34473145 17.86935059 -1.33618164 18.54760742 C-1.31252775 20.56013898 -1.31563623 22.57134845 -1.32226562 24.58398438 C-1.55536721 32.11619451 -1.55536721 32.11619451 1 39 C-0.32 38.34 -1.64 37.68 -3 37 C-3.07415168 32.21284377 -3.12860204 27.42602173 -3.16479492 22.63842773 C-3.17988243 21.00978777 -3.20035506 19.38118844 -3.22631836 17.75268555 C-3.26270449 15.41184465 -3.2797262 13.07154081 -3.29296875 10.73046875 C-3.30845261 10.00224411 -3.32393646 9.27401947 -3.33988953 8.52372742 C-3.34158031 3.44615804 -3.34158031 3.44615804 -1.48168945 1.0168457 C-0.99273193 0.68128662 -0.50377441 0.34572754 0 0 Z " fill="#A4D8B3" transform="translate(9,34)"/>
<path d="M0 0 C-1.62339805 1.70884005 -3.29319053 3.37446717 -5 5 C-5.66 5 -6.32 5 -7 5 C-7.33 5.99 -7.66 6.98 -8 8 C-9.77734375 8.87890625 -9.77734375 8.87890625 -11.9375 9.5625 C-14.72850228 10.45906516 -15.87774645 10.87774645 -18 13 C-17.67 11.68 -17.34 10.36 -17 9 C-15.68 9 -14.36 9 -13 9 C-13 7.68 -13 6.36 -13 5 C-11.35 4.67 -9.7 4.34 -8 4 C-7.67 3.01 -7.34 2.02 -7 1 C-4.53721199 -0.231394 -2.7204945 -0.07159196 0 0 Z " fill="#31BAF6" transform="translate(160,71)"/>
<path d="M0 0 C1.32 0.33 2.64 0.66 4 1 C1.96608669 2.63558014 -0.07621042 4.25823779 -2.125 5.875 C-2.97964844 6.56529297 -2.97964844 6.56529297 -3.8515625 7.26953125 C-7.42853528 10.07420309 -10.53093787 11.81821153 -15 13 C-13.71937515 11.2925002 -12.38232443 9.62626404 -11 8 C-10.34 8 -9.68 8 -9 8 C-8.67 6.68 -8.34 5.36 -8 4 C-6.865625 3.71125 -5.73125 3.4225 -4.5625 3.125 C-3.386875 2.75375 -2.21125 2.3825 -1 2 C-0.67 1.34 -0.34 0.68 0 0 Z " fill="#B6E5F7" transform="translate(112,33)"/>
<path d="M0 0 C2.64 0 5.28 0 8 0 C8 1.32 8 2.64 8 4 C9.65 4.33 11.3 4.66 13 5 C13.33 5.99 13.66 6.98 14 8 C14.66 8.66 15.32 9.32 16 10 C11.07101421 9.55191038 7.66242379 7.1603173 4 4 C3.67 3.34 3.34 2.68 3 2 C2.01 1.34 1.02 0.68 0 0 Z " fill="#D24E39" transform="translate(42,58)"/>
<path d="M0 0 C2.4375 0.375 2.4375 0.375 5 1 C6.61301773 4.22603545 6.12053599 7.74710038 6.09765625 11.2890625 C6.0962413 12.10748627 6.09482635 12.92591003 6.09336853 13.76913452 C6.0877629 16.38779325 6.07520948 19.00636704 6.0625 21.625 C6.05748572 23.39843627 6.05292269 25.17187387 6.04882812 26.9453125 C6.03779164 31.29690782 6.02052325 35.6484395 6 40 C5.67 40 5.34 40 5 40 C4.98598145 38.44889526 4.98598145 38.44889526 4.97167969 36.86645508 C4.93170579 33.01755224 4.86592751 29.16944254 4.79248047 25.32104492 C4.76431351 23.65773737 4.74307767 21.99429704 4.72900391 20.33081055 C4.70751408 17.93469475 4.66083712 15.54016816 4.609375 13.14453125 C4.60814636 12.4047554 4.60691772 11.66497955 4.60565186 10.90278625 C4.46769886 6.00309452 3.43640783 3.4872954 0 0 Z " fill="#D8F1FC" transform="translate(161,32)"/>
<path d="M0 0 C0.99 0.33 1.98 0.66 3 1 C3 1.66 3 2.32 3 3 C3.78375 3.144375 4.5675 3.28875 5.375 3.4375 C8 4 8 4 10 5 C10 5.66 10 6.32 10 7 C10.804375 7.28875 11.60875 7.5775 12.4375 7.875 C15 9 15 9 16 11 C17.64363134 11.72159424 19.31050386 12.39351421 21 13 C20.67 13.99 20.34 14.98 20 16 C18.22611914 14.90073597 16.45600316 13.79539498 14.6875 12.6875 C13.70136719 12.07261719 12.71523437 11.45773438 11.69921875 10.82421875 C9.48508142 9.32783361 7.82964536 7.90821909 6 6 C5.319375 5.690625 4.63875 5.38125 3.9375 5.0625 C1.54421293 3.75005225 0.99594253 2.48985633 0 0 Z " fill="#B45F3E" transform="translate(58,68)"/>
<path d="M0 0 C1.32 0 2.64 0 4 0 C4.33 0.66 4.66 1.32 5 2 C5.99 2.474375 6.98 2.94875 8 3.4375 C11 5 11 5 12 8 C13.65 8 15.3 8 17 8 C17.33 9.32 17.66 10.64 18 12 C16.68 11.67 15.36 11.34 14 11 C14 10.34 14 9.68 14 9 C13.42765625 8.88527344 12.8553125 8.77054688 12.265625 8.65234375 C9.78528344 7.93817644 7.93631303 6.92692128 5.75 5.5625 C5.04359375 5.13066406 4.3371875 4.69882812 3.609375 4.25390625 C3.07828125 3.84011719 2.5471875 3.42632813 2 3 C2 2.34 2 1.68 2 1 C1.34 0.67 0.68 0.34 0 0 Z " fill="#CEEDF9" transform="translate(141,20)"/>
<path d="M0 0 C0 0.99 0 1.98 0 3 C-1.423125 3.12375 -1.423125 3.12375 -2.875 3.25 C-4.421875 3.62125 -4.421875 3.62125 -6 4 C-7.16666667 5.91666667 -7.16666667 5.91666667 -8 8 C-10.99904936 10.0683099 -13.41302423 10.19927643 -17 10 C-16.67 9.01 -16.34 8.02 -16 7 C-13.49856737 5.82526178 -11.08588649 4.81920442 -8.5 3.875 C-3.90976402 2.47302115 -3.90976402 2.47302115 0 0 Z " fill="#F5E29F" transform="translate(104,178)"/>
<path d="M0 0 C1.32 0.33 2.64 0.66 4 1 C3.01 1.33 2.02 1.66 1 2 C1 2.66 1 3.32 1 4 C0.071875 4.433125 -0.85625 4.86625 -1.8125 5.3125 C-4.53402693 6.75330838 -5.94268891 7.84472171 -8 10 C-8.99 10.33 -9.98 10.66 -11 11 C-12.37195574 12.29355827 -13.71182656 13.62298702 -15 15 C-15.66 14.67 -16.32 14.34 -17 14 C-12.375 9.125 -12.375 9.125 -9 8 C-8.67 7.01 -8.34 6.02 -8 5 C-6.00428677 4.32060826 -4.00405227 3.65438441 -2 3 C-1.34 2.01 -0.68 1.02 0 0 Z " fill="#86D4F7" transform="translate(144,81)"/>
<path d="M0 0 C1.9375 0.3125 1.9375 0.3125 4 1 C5.1687481 4.5062443 5.12514267 7.6477866 5.09765625 11.29296875 C5.0962413 11.99899734 5.09482635 12.70502594 5.09336853 13.43244934 C5.08777764 15.68417626 5.07522688 17.93580321 5.0625 20.1875 C5.05748382 21.71549335 5.05292112 23.24348827 5.04882812 24.77148438 C5.0378112 28.51436135 5.02055287 32.25716373 5 36 C4.67 36 4.34 36 4 36 C3.98541748 35.08710205 3.97083496 34.1742041 3.95581055 33.23364258 C3.89459205 29.83201389 3.82041127 26.43117319 3.73754883 23.0300293 C3.70438741 21.56073578 3.67632822 20.09131756 3.65356445 18.62182617 C3.61985481 16.50385632 3.56753567 14.38702005 3.51171875 12.26953125 C3.48553467 10.99698486 3.45935059 9.72443848 3.43237305 8.41333008 C2.97999718 4.84208956 2.07901338 2.89706521 0 0 Z " fill="#13B1F6" transform="translate(156,35)"/>
<path d="M0 0 C3.08779026 1.46599217 5.90467205 3.17026393 8.75 5.0625 C9.94882812 5.85333984 9.94882812 5.85333984 11.171875 6.66015625 C12.07679687 7.32337891 12.07679687 7.32337891 13 8 C13 8.33 13 8.66 13 9 C10.36 9 7.72 9 5 9 C5 7.35 5 5.7 5 4 C3.35 3.67 1.7 3.34 0 3 C0 2.01 0 1.02 0 0 Z " fill="#53954E" transform="translate(22,48)"/>
<path d="M0 0 C0.33 0.99 0.66 1.98 1 3 C-0.65 3.66 -2.3 4.32 -4 5 C-4 5.99 -4 6.98 -4 8 C-6.64 8.66 -9.28 9.32 -12 10 C-12 9.01 -12 8.02 -12 7 C-11.21753906 6.57847656 -10.43507813 6.15695313 -9.62890625 5.72265625 C-8.61699219 5.17480469 -7.60507813 4.62695312 -6.5625 4.0625 C-5.55316406 3.51722656 -4.54382813 2.97195312 -3.50390625 2.41015625 C-1.13329507 1.22300532 -1.13329507 1.22300532 0 0 Z " fill="#4BBFF1" transform="translate(100,44)"/>
<path d="M0 0 C2.4375 0.375 2.4375 0.375 5 1 C5.33 1.66 5.66 2.32 6 3 C8.17076327 4.06380523 8.17076327 4.06380523 10.75 5 C12.04164062 5.495 12.04164062 5.495 13.359375 6 C14.66648437 6.495 14.66648437 6.495 16 7 C17.66793469 7.66348783 19.33499066 8.32920487 21 9 C20.67 9.66 20.34 10.32 20 11 C15.35896127 10.43744985 11.92433554 8.36956701 8 6 C6.70899579 5.29045999 5.41735037 4.58208514 4.125 3.875 C1 2 1 2 0 0 Z " fill="#F2C2C0" transform="translate(68,41)"/>
<path d="M0 0 C2.475 0.99 2.475 0.99 5 2 C5 2.66 5 3.32 5 4 C6.98 4.66 8.96 5.32 11 6 C11 6.66 11 7.32 11 8 C11.66 8.33 12.32 8.66 13 9 C10.69 9 8.38 9 6 9 C6 7.68 6 6.36 6 5 C3.03 4.505 3.03 4.505 0 4 C0 2.68 0 1.36 0 0 Z " fill="#4B9B4E" transform="translate(60,74)"/>
<path d="M0 0 C3.407692 0.60851643 5.2715551 1.93299629 8 4 C9.64797236 4.71162443 11.31165408 5.39031953 13 6 C13 6.66 13 7.32 13 8 C13.66 8.33 14.32 8.66 15 9 C12.6568787 8.74438677 10.32156597 8.40729228 8 8 C7.67 7.34 7.34 6.68 7 6 C5.35636866 5.27840576 3.68949614 4.60648579 2 4 C2 3.01 2 2.02 2 1 C1.34 0.67 0.68 0.34 0 0 Z " fill="#D9ECDE" transform="translate(15,78)"/>
<path d="M0 0 C6.55682035 4.06056895 13.03473695 8.08743043 19 13 C16.69 12.67 14.38 12.34 12 12 C11.67 11.01 11.34 10.02 11 9 C8.78049805 7.61444007 6.48084902 6.52278853 4.12890625 5.37890625 C1.73172703 3.82623787 1.02040302 2.62628318 0 0 Z " fill="#E98178" transform="translate(45,27)"/>
<path d="M0 0 C1.32 0.33 2.64 0.66 4 1 C3.01 1 2.02 1 1 1 C0.67 2.65 0.34 4.3 0 6 C-0.804375 6.12375 -1.60875 6.2475 -2.4375 6.375 C-3.7059375 6.684375 -3.7059375 6.684375 -5 7 C-5.33 7.66 -5.66 8.32 -6 9 C-7.32 7.35 -8.64 5.7 -10 4 C-7.03 4 -4.06 4 -1 4 C-0.67 2.68 -0.34 1.36 0 0 Z " fill="#E75D2A" transform="translate(91,80)"/>
<path d="M0 0 C0.33 0.99 0.66 1.98 1 3 C3.64 3.33 6.28 3.66 9 4 C9.33 4.99 9.66 5.98 10 7 C10.99 7.33 11.98 7.66 13 8 C9.99727245 8.96516243 7.95784231 9.22393475 5 8 C4.67 7.01 4.34 6.02 4 5 C1.98491642 4.26676204 1.98491642 4.26676204 0 4 C0 2.68 0 1.36 0 0 Z " fill="#53954D" transform="translate(35,57)"/>
<path d="M0 0 C0.66 0 1.32 0 2 0 C2.7425 0.763125 3.485 1.52625 4.25 2.3125 C7.02695205 5.02633951 9.47405199 6.44202297 13 8 C9.67465243 9.10844919 7.37817425 8.84454356 4 8 C4 7.01 4 6.02 4 5 C2.68 4.67 1.36 4.34 0 4 C0 2.68 0 1.36 0 0 Z " fill="#E75D51" transform="translate(43,27)"/>
<path d="M0 0 C3.55780196 0.60990891 6.6828589 1.5783681 10 3 C10 3.99 10 4.98 10 6 C10.66 6 11.32 6 12 6 C12 6.66 12 7.32 12 8 C10.68 8 9.36 8 8 8 C8 6.68 8 5.36 8 4 C6.02 4 4.04 4 2 4 C1.34 2.68 0.68 1.36 0 0 Z " fill="#E15E53" transform="translate(74,49)"/>
<path d="M0 0 C2.64 0 5.28 0 8 0 C8 1.32 8 2.64 8 4 C9.65 4.33 11.3 4.66 13 5 C12.67 5.99 12.34 6.98 12 8 C12 7.34 12 6.68 12 6 C11.236875 5.855625 10.47375 5.71125 9.6875 5.5625 C7 5 7 5 4 4 C4 3.34 4 2.68 4 2 C2.68 1.67 1.36 1.34 0 1 C0 0.67 0 0.34 0 0 Z " fill="#CA533B" transform="translate(29,50)"/>
<path d="M0 0 C1.31823302 0.59155331 2.62947051 1.19871463 3.9375 1.8125 C5.03384766 2.31716797 5.03384766 2.31716797 6.15234375 2.83203125 C8 4 8 4 9 7 C9.66 7.33 10.32 7.66 11 8 C4.63265306 7.63265306 4.63265306 7.63265306 1.5625 4.5625 C0 2 0 2 0 0 Z " fill="#6B884B" transform="translate(11,40)"/>
<path d="M0 0 C0 0.99 0 1.98 0 3 C-0.99 3.33 -1.98 3.66 -3 4 C-3.73323796 6.01508358 -3.73323796 6.01508358 -4 8 C-6.31 8 -8.62 8 -11 8 C-7.61831569 4.31993178 -4.57478244 2.0214155 0 0 Z " fill="#36BDF5" transform="translate(114,36)"/>
<path d="M0 0 C0.33 1.32 0.66 2.64 1 4 C0.46375 3.67 -0.0725 3.34 -0.625 3 C-3.62934544 1.73501245 -5.76767442 1.65613558 -9 2 C-10.87890434 3.37506099 -10.87890434 3.37506099 -12 5 C-12.66 4.67 -13.32 4.34 -14 4 C-9.0735581 -1.04960295 -6.87079178 -1.54000505 0 0 Z " fill="#F4C5C1" transform="translate(40,20)"/>
<path d="M0 0 C2.475 0.495 2.475 0.495 5 1 C5 1.99 5 2.98 5 4 C5.99 4 6.98 4 8 4 C8 4.66 8 5.32 8 6 C9.32 6.66 10.64 7.32 12 8 C8.62389977 8 6.97029722 7.59381802 4 6 C1.6875 2.875 1.6875 2.875 0 0 Z " fill="#81C595" transform="translate(24,80)"/>
<path d="M0 0 C2.64 0.33 5.28 0.66 8 1 C8 2.32 8 3.64 8 5 C9.65 5.33 11.3 5.66 13 6 C12.67 6.99 12.34 7.98 12 9 C12 8.34 12 7.68 12 7 C11.2575 6.9175 10.515 6.835 9.75 6.75 C6.44635463 5.84900581 5.27341283 4.50075412 3 2 C2.01 1.34 1.02 0.68 0 0 Z " fill="#5BB574" transform="translate(64,174)"/>
<path d="M0 0 C0.66 0.33 1.32 0.66 2 1 C0.7315625 1.804375 0.7315625 1.804375 -0.5625 2.625 C-3.8056667 4.75380847 -6.57760278 7.25873552 -9.38671875 9.92578125 C-9.91910156 10.28027344 -10.45148438 10.63476562 -11 11 C-11.99 10.67 -12.98 10.34 -14 10 C-11.22969371 7.02448584 -8.53943216 4.98553511 -5 3 C-4.113125 2.4225 -3.22625 1.845 -2.3125 1.25 C-1.549375 0.8375 -0.78625 0.425 0 0 Z " fill="#C8EAFA" transform="translate(143,85)"/>
<path d="M0 0 C5.03985731 0.44469329 7.37634988 2.71343362 11 6 C9.234375 6.6796875 9.234375 6.6796875 7 7 C5.078125 5.8203125 5.078125 5.8203125 3.25 4.125 C2.63640625 3.57070313 2.0228125 3.01640625 1.390625 2.4453125 C0 1 0 1 0 0 Z " fill="#767692" transform="translate(92,58)"/>
<path d="M0 0 C1.98 0 3.96 0 6 0 C6 1.32 6 2.64 6 4 C6.99 4.33 7.98 4.66 9 5 C7.68 5.33 6.36 5.66 5 6 C4.34 4.68 3.68 3.36 3 2 C2.01 2 1.02 2 0 2 C0 1.34 0 0.68 0 0 Z " fill="#89C99B" transform="translate(36,89)"/>
<path d="M0 0 C4.77826683 2.21431878 8.78542278 4.88121286 13 8 C12.01 8.33 11.02 8.66 10 9 C7.625 7.25 7.625 7.25 5 5 C4.071875 4.46375 3.14375 3.9275 2.1875 3.375 C1.465625 2.92125 0.74375 2.4675 0 2 C0 1.34 0 0.68 0 0 Z " fill="#AAD6B6" transform="translate(13,74)"/>
<path d="M0 0 C0.33 0.99 0.66 1.98 1 3 C-0.32 3 -1.64 3 -3 3 C-3.66 4.32 -4.32 5.64 -5 7 C-6.65 7 -8.3 7 -10 7 C-9.01 6.67 -8.02 6.34 -7 6 C-6.896875 5.360625 -6.79375 4.72125 -6.6875 4.0625 C-6.460625 3.381875 -6.23375 2.70125 -6 2 C-2.9375 0.75 -2.9375 0.75 0 0 Z " fill="#E2F4FB" transform="translate(115,30)"/>
<path d="M0 0 C0.66 0.33 1.32 0.66 2 1 C-2.625 5.875 -2.625 5.875 -6 7 C-6.33 7.66 -6.66 8.32 -7 9 C-7.66 9 -8.32 9 -9 9 C-8.34 7.35 -7.68 5.7 -7 4 C-5.68 4 -4.36 4 -3 4 C-3 3.01 -3 2.02 -3 1 C-2.01 0.67 -1.02 0.34 0 0 Z " fill="#E5988E" transform="translate(18,29)"/>
<path d="M0 0 C0 0.99 0 1.98 0 3 C-7.28571429 7.42857143 -7.28571429 7.42857143 -12 8 C-12 7.34 -12 6.68 -12 6 C-8 4 -4 2 0 0 Z " fill="#9BD9F2" transform="translate(126,96)"/>
<path d="M0 0 C0.99 0 1.98 0 3 0 C3 0.66 3 1.32 3 2 C4.98 2.66 6.96 3.32 9 4 C9 5.32 9 6.64 9 8 C8.34 8 7.68 8 7 8 C7 7.34 7 6.68 7 6 C6.030625 5.7525 5.06125 5.505 4.0625 5.25 C3.051875 4.8375 2.04125 4.425 1 4 C0.125 1.875 0.125 1.875 0 0 Z " fill="#11A4EB" transform="translate(102,59)"/>
<path d="M0 0 C0.99 0 1.98 0 3 0 C3 0.66 3 1.32 3 2 C3.99 2 4.98 2 6 2 C7.9249647 3.82193842 9.37535531 5.89235283 11 8 C9.35 8 7.7 8 6 8 C5.62875 7.13375 5.62875 7.13375 5.25 6.25 C3.83316683 3.6997003 2.12372463 1.98214299 0 0 Z " fill="#827A47" transform="translate(30,52)"/>
<path d="M0 0 C0.33 0.66 0.66 1.32 1 2 C0.2575 2.2475 -0.485 2.495 -1.25 2.75 C-4.11078977 3.84103765 -4.11078977 3.84103765 -6.0625 6.1875 C-7.0215625 7.0846875 -7.0215625 7.0846875 -8 8 C-10.25 7.75 -10.25 7.75 -12 7 C-11.360625 6.896875 -10.72125 6.79375 -10.0625 6.6875 C-9.381875 6.460625 -8.70125 6.23375 -8 6 C-7.67 5.01 -7.34 4.02 -7 3 C-3.4375 1.3125 -3.4375 1.3125 0 0 Z " fill="#EF8B1C" transform="translate(101,79)"/>
<path d="M0 0 C0.66 0.33 1.32 0.66 2 1 C-0.18054378 5.48222888 -2.33060736 7.24897776 -7 9 C-7.99 8.67 -8.98 8.34 -10 8 C-9.443125 7.773125 -8.88625 7.54625 -8.3125 7.3125 C-5.36305245 5.63848923 -3.3247731 3.45043651 -1 1 C-0.67 0.67 -0.34 0.34 0 0 Z " fill="#86D4F6" transform="translate(158,72)"/>
<path d="M0 0 C0.33 0.66 0.66 1.32 1 2 C0.0409375 2.1546875 0.0409375 2.1546875 -0.9375 2.3125 C-1.618125 2.539375 -2.29875 2.76625 -3 3 C-3.33 3.99 -3.66 4.98 -4 6 C-6.31 6.33 -8.62 6.66 -11 7 C-7.53258866 4.04250209 -4.13126473 1.92151848 0 0 Z " fill="#DEF2FB" transform="translate(165,72)"/>
<path d="M0 0 C0.66 0 1.32 0 2 0 C2.66 1.65 3.32 3.3 4 5 C4.66 5 5.32 5 6 5 C6.66 6.32 7.32 7.64 8 9 C6.35 8.67 4.7 8.34 3 8 C2.67 6.35 2.34 4.7 2 3 C1.34 3 0.68 3 0 3 C0 2.01 0 1.02 0 0 Z " fill="#C56566" transform="translate(84,52)"/>
<path d="M0 0 C0.66 0.33 1.32 0.66 2 1 C-1.90456127 4.53269829 -4.80177328 6.63855967 -10 8 C-7.32187053 4.23078075 -5.40524374 2.4287277 -1 1 C-0.67 0.67 -0.34 0.34 0 0 Z " fill="#8ED7F6" transform="translate(107,38)"/>
<path d="M0 0 C1.32 0 2.64 0 4 0 C4.33 1.32 4.66 2.64 5 4 C6.65 4 8.3 4 10 4 C9.67 5.32 9.34 6.64 9 8 C7.82780457 7.21654285 6.66236332 6.42297164 5.5 5.625 C4.8503125 5.18414063 4.200625 4.74328125 3.53125 4.2890625 C3.0259375 3.86367188 2.520625 3.43828125 2 3 C2 2.34 2 1.68 2 1 C1.34 0.67 0.68 0.34 0 0 Z " fill="#F7E1DF" transform="translate(45,24)"/>
<path d="M0 0 C1.65 0.33 3.3 0.66 5 1 C5 1.66 5 2.32 5 3 C5.99 3.33 6.98 3.66 8 4 C8 4.33 8 4.66 8 5 C6.35 5 4.7 5 3 5 C3 3.68 3 2.36 3 1 C2.34 1 1.68 1 1 1 C0.67 1.99 0.34 2.98 0 4 C-0.66 4 -1.32 4 -2 4 C-2 3.34 -2 2.68 -2 2 C-1.34 2 -0.68 2 0 2 C0 1.34 0 0.68 0 0 Z " fill="#29B8F4" transform="translate(135,22)"/>
<path d="M0 0 C-2.97180943 1.89865603 -5.51460083 3.35455571 -9 4 C-9 2.68 -9 1.36 -9 0 C-5.62182575 -0.84454356 -3.32534757 -1.10844919 0 0 Z " fill="#F7C93B" transform="translate(108,175)"/>
<path d="M0 0 C1.65 0 3.3 0 5 0 C5.12375 0.639375 5.2475 1.27875 5.375 1.9375 C5.684375 2.9584375 5.684375 2.9584375 6 4 C6.66 4.33 7.32 4.66 8 5 C4.62537285 4.45276317 2.91765 3.9451 0 2 C0 1.34 0 0.68 0 0 Z " fill="#55B46E" transform="translate(32,84)"/>
<path d="M0 0 C2.475 0.495 2.475 0.495 5 1 C5.33 1.99 5.66 2.98 6 4 C6.66 4.33 7.32 4.66 8 5 C5.125 4.75 5.125 4.75 2 4 C0.625 1.9375 0.625 1.9375 0 0 Z " fill="#BFE0C7" transform="translate(48,99)"/>
<path d="M0 0 C-0.99 0.33 -1.98 0.66 -3 1 C-3.474375 1.495 -3.94875 1.99 -4.4375 2.5 C-6.25193719 4.24185971 -7.55559077 4.57855013 -10 5 C-10 4.34 -10 3.68 -10 3 C-9.01 3 -8.02 3 -7 3 C-7 2.01 -7 1.02 -7 0 C-3.86650268 -1.04449911 -3.01031744 -0.93423645 0 0 Z " fill="#F6C736" transform="translate(99,180)"/>
<path d="M0 0 C4.43090471 1.20842856 6.98112756 2.51668565 10 6 C5.16743695 5.58578031 3.17320782 3.53586014 0 0 Z " fill="#EA9B94" transform="translate(74,46)"/>
<path d="M0 0 C2.25 0.25 2.25 0.25 4 1 C4 1.99 4 2.98 4 4 C1.36 4 -1.28 4 -4 4 C-2.25 1.9375 -2.25 1.9375 0 0 Z " fill="#14B3F6" transform="translate(128,27)"/>
<path d="M0 0 C0.33 1.32 0.66 2.64 1 4 C-0.75 5.5625 -0.75 5.5625 -3 7 C-5.25 6.6875 -5.25 6.6875 -7 6 C-6.01 5.67 -5.02 5.34 -4 5 C-2.61423077 3.37667033 -1.27358732 1.71275535 0 0 Z " fill="#FBF5DB" transform="translate(114,171)"/>
<path d="M0 0 C2.31 0 4.62 0 7 0 C7.33 1.32 7.66 2.64 8 4 C4.64404172 3.40072174 2.62198774 2.15377564 0 0 Z " fill="#D24E3A" transform="translate(16,41)"/>
<path d="M0 0 C1.31823302 0.59155331 2.62947051 1.19871463 3.9375 1.8125 C5.03384766 2.31716797 5.03384766 2.31716797 6.15234375 2.83203125 C8 4 8 4 9 7 C8.34 7 7.68 7 7 7 C6.67 6.34 6.34 5.68 6 5 C4.02111039 4.27306096 2.02045442 3.60183749 0 3 C0 2.01 0 1.02 0 0 Z " fill="#71CDF3" transform="translate(155,31)"/>
<path d="M0 0 C2.16874252 0.50603992 3.99967627 0.99983813 6 2 C6 2.66 6 3.32 6 4 C4.35 4 2.7 4 1 4 C0.67 2.68 0.34 1.36 0 0 Z " fill="#CEE6D5" transform="translate(30,87)"/>
<path d="M0 0 C5.53846154 0.49230769 5.53846154 0.49230769 7.875 3.0625 C8.431875 4.0215625 8.431875 4.0215625 9 5 C4.68607774 4.5206753 2.83430453 3.2542015 0 0 Z " fill="#BD593C" transform="translate(49,63)"/>
<path d="M0 0 C0.66 0.33 1.32 0.66 2 1 C1.54625 1.7425 1.0925 2.485 0.625 3.25 C-0.68640796 5.46930578 -1.88280803 7.67967822 -3 10 C-3.36923077 3.47692308 -3.36923077 3.47692308 -1.5 1.0625 C-1.005 0.711875 -0.51 0.36125 0 0 Z " fill="#BFC4AB" transform="translate(9,34)"/>
<path d="M0 0 C2.64 0 5.28 0 8 0 C7.01 0.495 7.01 0.495 6 1 C4.86649466 3.01669827 4.86649466 3.01669827 4 5 C2.68 3.35 1.36 1.7 0 0 Z " fill="#CB5D36" transform="translate(81,84)"/>
<path d="M0 0 C3.35595828 0.59927826 5.37801226 1.84622436 8 4 C5.69 3.67 3.38 3.34 1 3 C0.67 2.01 0.34 1.02 0 0 Z " fill="#618D4A" transform="translate(48,66)"/>
<path d="M0 0 C0.66 0 1.32 0 2 0 C2 0.66 2 1.32 2 2 C3.32 2.33 4.64 2.66 6 3 C5.67 3.99 5.34 4.98 5 6 C4.01 5.67 3.02 5.34 2 5 C0.8125 2.4375 0.8125 2.4375 0 0 Z " fill="#7B89A5" transform="translate(86,52)"/>
<path d="M0 0 C2.95409701 1.37154504 5.44008376 2.98863724 8 5 C5.69 4.67 3.38 4.34 1 4 C0.67 2.68 0.34 1.36 0 0 Z " fill="#638C4B" transform="translate(22,48)"/>
<path d="M0 0 C2.92879371 0.62759865 5.36095629 1.58622659 8 3 C5.6875 3.625 5.6875 3.625 3 4 C2.01 3.34 1.02 2.68 0 2 C0 1.34 0 0.68 0 0 Z " fill="#E2D2D5" transform="translate(81,48)"/>
<path d="M0 0 C1.32 0 2.64 0 4 0 C4 0.99 4 1.98 4 3 C4.66 3.33 5.32 3.66 6 4 C4.35 4 2.7 4 1 4 C0.67 2.68 0.34 1.36 0 0 Z " fill="#E75D51" transform="translate(61,40)"/>
<path d="M0 0 C3 3.75 3 3.75 3 6 C1.68 6 0.36 6 -1 6 C-1.042721 4.33388095 -1.04063832 2.66617115 -1 1 C-0.67 0.67 -0.34 0.34 0 0 Z " fill="#74A469" transform="translate(9,38)"/>
<path d="M0 0 C1.32 0 2.64 0 4 0 C4.33 1.32 4.66 2.64 5 4 C3.35 4 1.7 4 0 4 C0 2.68 0 1.36 0 0 Z " fill="#23B7F4" transform="translate(151,31)"/>
<path d="M0 0 C0.66 0 1.32 0 2 0 C1.67 1.32 1.34 2.64 1 4 C-1.31 4.33 -3.62 4.66 -6 5 C-5.195625 4.360625 -4.39125 3.72125 -3.5625 3.0625 C-1.7249496 1.59396498 -1.7249496 1.59396498 0 0 Z " fill="#2FBBF6" transform="translate(121,31)"/>
</svg>
